<svg xmlns="http://www.w3.org/2000/svg" viewBox="0 0 160 720" fill="none">
  <g stroke="#F5EFE6" stroke-width="1.2" fill="none" stroke-linecap="round">
    <ellipse cx="80" cy="14" rx="8" ry="12"/>
    <line x1="80" y1="26" x2="80" y2="36"/>
    <polygon points="80,36 56,62 104,62"/>
    <polygon points="80,40 62,60 98,60" fill="rgba(245,239,230,0.1)"/>
    <rect x="50" y="62" width="60" height="24" rx="2"/>
    <line x1="50" y1="74" x2="110" y2="74"/>
    <rect x="54" y="64" width="10" height="12" rx="2"/>
    <rect x="68" y="64" width="10" height="12" rx="2"/>
    <rect x="82" y="64" width="10" height="12" rx="2"/>
    <rect x="96" y="64" width="10" height="12" rx="2"/>
    <rect x="38" y="86" width="84" height="28" rx="2"/>
    <line x1="38" y1="100" x2="122" y2="100"/>
    <rect x="44" y="88" width="12" height="14" rx="1"/>
    <rect x="60" y="88" width="12" height="14" rx="1"/>
    <rect x="76" y="88" width="12" height="14" rx="1"/>
    <rect x="92" y="88" width="12" height="14" rx="1"/>
    <rect x="108" y="88" width="8"  height="14" rx="1"/>
    <rect x="28" y="114" width="104" height="30" rx="2"/>
    <line x1="28" y1="129" x2="132" y2="129"/>
    <rect x="20" y="144" width="120" height="32" rx="2"/>
    <line x1="20" y1="160" x2="140" y2="160"/>
    <rect x="10" y="176" width="140" height="200" rx="2"/>
    <line x1="10" y1="192" x2="150" y2="192"/>
    <line x1="10" y1="208" x2="150" y2="208"/>
    <rect x="17" y="200" width="22" height="248" rx="2"/>
    <circle cx="28" cy="212" r="5"/>
    <rect x="132" y="200" width="22" height="248" rx="2"/>
    <circle cx="143" cy="212" r="5"/>
    <rect x="0" y="454" width="160" height="44"/>
  </g>
</svg>
