<svg version="1.1" id="Layer_1" xmlns="http://www.w3.org/2000/svg" xmlns:xlink="http://www.w3.org/1999/xlink" x="0px" y="0px"
	 width="100%" viewBox="0 0 1024 1024" enable-background="new 0 0 1024 1024" xml:space="preserve">
<path fill="#000000" opacity="1.000000" stroke="none" 
	d="
M342.627197,877.851440 
	C344.331909,868.202698 351.022705,863.154541 358.365936,858.638489 
	C359.477570,857.954834 360.509766,857.140686 361.561859,856.364075 
	C361.647308,856.300964 361.602386,856.061096 361.660797,855.474609 
	C356.872589,854.437500 352.629303,855.942444 348.640930,858.313599 
	C344.777771,860.610229 341.072479,863.170959 337.271454,865.573975 
	C330.345581,869.952393 322.346832,870.869751 314.557434,872.143066 
	C310.645355,872.782532 308.070953,875.228333 305.179138,877.073669 
	C303.011505,876.632751 302.620087,875.031067 302.852203,873.589966 
	C303.964264,866.685669 306.030945,860.165527 309.870972,854.150513 
	C314.156311,847.437866 320.400269,843.885681 327.644196,841.545837 
	C328.654602,841.219360 329.503815,840.596680 329.500275,839.468384 
	C329.496765,838.344116 328.620758,837.726807 327.651123,837.348267 
	C322.088806,835.176880 316.355438,834.467834 310.514221,835.821228 
	C307.742432,836.463440 306.313660,838.137512 307.106049,841.359070 
	C307.942322,844.759216 306.363556,847.052612 302.814270,847.130188 
	C299.371399,847.205444 297.810059,844.924561 297.685577,841.632446 
	C297.517242,837.178894 300.666718,833.554626 306.249939,831.941101 
	C308.749603,831.218689 311.326355,830.762939 313.972504,830.162476 
	C308.435699,820.276306 302.893707,819.193970 295.945831,823.790527 
	C294.692200,824.619995 293.413025,826.898010 291.880280,824.753052 
	C290.637421,823.013794 292.570099,821.823364 293.787537,820.712280 
	C294.619873,819.952759 295.870331,819.573120 296.162964,817.871216 
	C293.441345,815.525208 289.984283,816.029419 286.820557,816.298462 
	C278.561676,817.000793 271.115509,819.555481 266.700256,827.315735 
	C264.873352,830.526672 263.277069,833.894165 265.498230,837.667053 
	C266.388153,839.178772 265.854980,840.578247 264.802765,841.796692 
	C262.610046,844.335754 263.624817,846.788269 265.048859,849.152466 
	C266.044891,850.806152 267.519073,851.952942 269.592804,851.587708 
	C271.492432,851.253052 271.607147,849.634155 271.744507,848.105347 
	C271.968964,845.606995 273.203033,843.801636 275.830963,844.106201 
	C278.823975,844.453003 279.916840,846.777771 279.806305,849.551270 
	C279.589783,854.983459 272.643433,859.310364 266.667297,857.827942 
	C258.868011,855.893250 252.979202,848.313049 252.628250,839.756531 
	C252.160995,828.364197 258.998322,818.015930 269.796783,813.416138 
	C275.322662,811.062317 281.286804,810.478455 286.828735,809.156677 
	C287.401154,807.341248 286.266357,806.877991 285.417877,806.620178 
	C277.721741,804.281860 270.032104,802.535156 261.908966,804.932861 
	C257.279266,806.299316 254.916183,809.321655 252.982513,813.473022 
	C249.366562,821.236145 244.183334,827.851379 235.378937,829.892029 
	C223.997955,832.529968 218.990341,827.639282 218.959930,818.722961 
	C218.931824,810.485901 228.232239,801.611877 236.578079,800.632568 
	C241.959885,800.001038 247.157501,798.645203 252.781540,800.284363 
	C255.476913,801.069946 258.886505,798.979492 261.998688,798.857666 
	C266.978851,798.662781 271.981201,799.007141 276.973114,799.158691 
	C278.178040,799.195190 279.358521,799.233887 280.046021,798.025513 
	C280.521515,797.189880 280.272400,796.306885 279.580566,795.780884 
	C268.087311,787.042847 257.234650,777.071045 241.976837,775.303711 
	C237.128540,774.742188 232.317688,774.973206 227.948608,777.671143 
	C226.831512,778.360901 225.575348,779.038391 224.179474,778.431335 
	C221.505981,777.268616 220.603714,778.879883 219.888031,781.005920 
	C218.195190,786.034790 213.800720,786.944580 209.450714,787.142395 
	C204.533768,787.366028 200.280807,785.302063 197.522324,781.094421 
	C196.105438,778.933228 196.979263,777.022034 199.702591,776.971375 
	C202.356689,776.921997 204.084442,775.750061 205.526749,773.746704 
	C210.530762,766.796265 217.927261,764.703308 225.883789,763.652466 
	C228.870758,763.257935 233.544281,764.242004 234.096176,760.861084 
	C234.679276,757.288940 230.161697,755.750793 227.108643,755.003479 
	C221.074203,753.526306 216.666489,749.302551 211.337891,746.736023 
	C205.968842,744.150024 204.446884,745.146790 203.289978,750.872803 
	C202.892807,752.838623 201.866196,754.776306 200.169632,755.073853 
	C194.953217,755.988770 192.295547,760.415161 188.429947,763.109253 
	C184.654984,765.740173 185.128662,771.117432 182.463165,774.735535 
	C181.681778,775.796204 183.685349,776.721985 185.069214,776.980225 
	C187.335892,777.403015 188.682297,778.681030 188.514862,781.102234 
	C188.370453,783.190857 187.063370,784.472717 185.145584,784.973206 
	C182.950836,785.545837 181.186798,784.588623 179.992462,782.780090 
	C177.990326,779.748352 178.419006,776.350037 179.064423,773.091736 
	C180.061417,768.058289 182.783829,763.879639 186.201202,760.117310 
	C187.612610,758.563416 189.443130,757.320007 190.486725,754.286133 
	C184.156342,755.832153 182.584412,749.756348 178.451569,747.534119 
	C175.855392,746.138123 177.388641,742.884949 179.178070,741.042236 
	C181.022552,739.142883 183.097000,736.123230 186.249008,738.882507 
	C194.131058,745.782593 202.540176,743.646179 211.035309,741.040100 
	C211.587906,738.575500 209.802536,737.852905 208.602356,736.838623 
	C205.273697,734.025513 202.303818,730.912292 199.881699,727.268127 
	C198.155334,724.670776 199.261948,722.511780 201.751389,722.568726 
	C206.292908,722.672668 209.401169,721.505066 210.592880,716.301819 
	C211.850372,722.578857 210.227005,729.060913 215.326599,733.634094 
	C218.566635,732.538025 217.437988,729.983337 217.688248,728.035400 
	C218.157227,724.385254 219.417526,721.513184 223.680405,721.403320 
	C225.644318,721.352661 227.333466,722.089600 228.032288,724.099609 
	C228.711258,726.052490 228.291855,727.963684 226.382034,728.829895 
	C221.251587,731.156921 222.085159,734.720032 223.818329,738.797180 
	C226.076004,744.108215 229.197617,748.602112 234.051971,751.668152 
	C236.490814,750.173401 235.844360,748.086914 235.582672,746.475647 
	C233.809525,735.558228 242.763107,725.316711 253.914536,725.826111 
	C264.694885,726.318665 273.488098,736.842590 272.705383,748.283447 
	C272.411041,752.585693 270.351807,756.212463 268.976715,760.120239 
	C268.060425,762.724121 266.152954,765.555908 268.816223,768.369385 
	C271.562164,767.652344 271.438812,764.849487 273.056183,763.490906 
	C274.711792,762.100220 276.452728,760.907532 278.266357,762.860962 
	C280.142029,764.881287 279.136261,766.504395 276.941895,767.559814 
	C273.448730,769.239868 272.664215,772.411743 273.484467,775.590149 
	C275.547058,783.582458 280.177460,789.864990 287.147125,794.469421 
	C290.422913,792.180237 289.085052,789.515442 288.421112,787.070068 
	C284.858368,773.947876 287.236481,761.902039 295.515717,751.271545 
	C301.235596,743.927429 311.172089,741.262939 318.829132,744.214111 
	C325.190094,746.665771 327.934418,754.214661 324.054840,758.718994 
	C322.574066,760.438293 320.748413,761.828491 318.416870,760.398682 
	C316.220123,759.051575 316.435638,757.179504 317.909454,755.299500 
	C318.908173,754.025513 318.766113,752.780640 317.508728,751.810303 
	C316.109406,750.730408 314.541687,750.472290 312.798798,751.065796 
	C309.244080,752.276306 306.016144,757.335388 306.994843,761.657227 
	C308.593689,768.718018 309.336334,776.034607 313.163177,782.519165 
	C315.374908,786.266907 316.088257,790.622314 316.300903,795.007141 
	C316.367737,796.385864 315.641754,798.054321 317.789825,799.275146 
	C319.349182,795.447754 320.830597,791.679443 322.426025,787.959961 
	C323.079163,786.437195 323.795441,784.876587 324.806915,783.587219 
	C326.512024,781.413635 328.684143,780.837219 329.438721,784.143372 
	C330.712463,789.724182 335.134949,792.711487 338.900452,796.011047 
	C346.859863,802.985535 349.072266,811.644348 347.698608,821.608398 
	C346.933807,827.155823 346.455322,832.584839 349.913879,837.485107 
	C350.858582,838.823669 351.831512,840.248474 353.869659,840.224426 
	C355.803223,838.473511 354.042419,836.855103 353.560974,835.302307 
	C352.477509,831.807861 350.955231,828.419739 350.972290,824.679688 
	C350.982880,822.353027 352.038391,820.476624 354.127136,819.361267 
	C355.813965,818.460510 357.373779,818.943665 358.692963,820.208069 
	C360.472107,821.913147 360.847168,824.200256 359.913483,826.206238 
	C358.354828,829.555054 357.197327,832.176636 361.796661,834.265442 
	C363.160675,834.884888 363.492493,837.728516 364.345886,839.529907 
	C366.776703,844.661072 370.463501,848.434082 376.673157,850.159668 
	C369.820618,840.316467 370.985870,829.184814 369.781036,816.975281 
	C380.132141,821.936157 390.944214,823.000793 398.546936,830.916199 
	C401.370850,833.856323 403.760193,834.792542 407.608063,832.616455 
	C412.994934,829.570190 418.886658,827.723572 425.203033,827.545410 
	C428.129089,827.462769 430.157135,826.044678 429.588776,822.842590 
	C428.601807,817.282288 427.448883,811.743164 426.116669,806.255554 
	C425.268066,802.760132 422.713776,801.015381 419.110779,801.000793 
	C409.946106,800.963623 400.781311,800.961121 391.616547,800.968079 
	C388.674133,800.970337 386.692322,802.251526 385.373169,805.040161 
	C383.678223,808.623169 381.609222,813.429260 377.810791,813.532776 
	C373.905090,813.639221 371.963165,808.815063 370.341003,805.183899 
	C369.316193,802.889954 367.934906,801.243896 365.239594,801.033997 
	C363.114258,800.868408 360.293793,801.072876 360.041565,798.290955 
	C359.692780,794.443970 357.724030,788.906616 361.386841,787.042664 
	C369.571716,782.877319 370.472290,775.246033 371.172485,768.281494 
	C372.117035,758.886780 375.190277,749.916870 374.994720,740.245300 
	C374.579041,719.688354 375.277161,699.108643 375.538422,678.538513 
	C375.559387,676.889587 375.968109,675.174500 373.972717,673.849487 
	C370.891724,676.471863 371.290710,680.509460 370.624237,683.770264 
	C367.368927,699.697388 364.665283,715.736877 361.680573,731.720520 
	C361.384064,733.308289 361.626831,734.654236 362.176392,736.075256 
	C362.718811,737.477722 363.369293,739.012634 362.668030,740.439392 
	C358.468414,748.983704 360.660095,758.134766 360.076721,767.012268 
	C359.799774,771.226501 356.881897,774.029053 352.863525,772.724976 
	C349.327667,771.577515 345.540833,770.856812 342.501709,768.263611 
	C340.833435,766.840210 339.917023,765.598083 341.315063,763.696350 
	C344.804565,758.949768 345.558502,752.835938 349.172119,748.153564 
	C349.663635,747.516663 350.046936,746.658752 350.129974,745.866455 
	C350.661469,740.795105 352.657684,736.105164 353.888000,731.336487 
	C355.253143,726.045410 356.574310,720.492188 357.602234,714.991150 
	C360.398438,700.027222 363.371582,685.096497 366.238586,670.145691 
	C368.701080,657.303955 371.131195,644.455933 373.541962,631.604431 
	C374.957001,624.061035 371.484009,617.278503 370.010620,610.201355 
	C369.229004,606.447021 369.702637,603.302002 372.323273,600.500732 
	C376.133667,596.427673 377.472870,589.380615 374.760925,584.611145 
	C372.868530,581.282959 372.971466,578.570435 374.773834,575.303223 
	C377.150635,570.994568 375.656769,566.137878 375.921082,561.529785 
	C376.139771,557.717712 377.688995,556.011230 382.003479,557.162415 
	C382.297852,560.858093 382.647888,564.624084 382.883667,568.397217 
	C383.101166,571.877625 383.136536,575.316528 385.222168,578.428772 
	C386.276520,580.002075 385.845245,581.878357 384.967041,583.668457 
	C381.256622,591.231873 381.853271,595.234924 387.333893,600.914856 
	C389.612183,603.276062 390.531616,606.027222 389.207428,609.140625 
	C387.597473,612.925842 389.080170,615.469666 391.507263,618.510132 
	C396.043091,624.192139 397.991760,631.376587 401.222473,637.834656 
	C405.585205,646.555725 409.226532,655.642212 415.729706,663.194214 
	C418.804016,666.764343 419.380951,671.742004 421.957977,675.850403 
	C428.326294,686.002930 436.945374,694.316406 443.731171,704.078918 
	C444.501831,705.187622 445.989990,705.339478 447.245239,705.805359 
	C451.048706,707.216980 454.015167,709.303772 456.003296,713.312805 
	C459.645081,720.656555 467.579132,722.904419 474.113831,726.633728 
	C478.393646,729.076233 483.315918,730.331421 487.577454,732.936584 
	C488.135437,733.277710 488.825500,733.752258 489.391357,733.678955 
	C499.568542,732.359802 510.184357,734.985962 519.984863,731.319336 
	C528.164856,728.259094 536.002441,724.140503 543.278015,719.157349 
	C544.354309,718.420105 545.711243,717.559937 546.111206,716.456787 
	C548.245239,710.571167 553.444092,708.351685 558.283386,705.512390 
	C562.982422,702.755310 565.812866,698.074036 568.796326,693.721130 
	C572.625916,688.133789 578.380066,684.042053 580.842834,677.361206 
	C582.763611,672.150757 582.463013,670.938049 576.934387,669.384766 
	C569.361755,667.257080 562.160889,664.276672 555.343933,660.346436 
	C528.960449,645.135071 513.143005,622.592712 508.975555,592.367981 
	C507.245850,579.823547 508.983368,567.365051 513.685852,555.564087 
	C515.758606,550.362366 515.076965,546.262085 512.164185,541.591248 
	C492.504883,510.066010 473.796204,477.947327 453.295654,446.947815 
	C444.740662,434.011475 435.813202,421.303009 423.631195,411.380676 
	C418.685364,407.352325 413.259491,404.150574 406.814240,403.016724 
	C404.002777,402.522186 402.275177,403.013306 402.325500,406.375946 
	C402.801514,438.190979 401.199249,470.031799 403.213165,501.821747 
	C403.983704,513.985168 409.346313,519.119019 421.204681,520.641602 
	C423.039703,520.877258 425.762207,520.142883 425.706299,523.188110 
	C425.653656,526.057251 422.955719,525.800903 421.124359,525.810181 
	C399.793060,525.918457 378.461151,525.941711 357.129608,525.889893 
	C355.263977,525.885376 352.728333,525.979797 352.748199,523.036743 
	C352.767242,520.218323 355.138489,520.853516 356.845886,520.687256 
	C370.163696,519.391052 376.064178,513.220825 376.810486,499.753571 
	C378.554657,468.278931 377.456207,436.777344 377.616547,405.289185 
	C377.829590,363.457306 377.702393,321.623444 377.628021,279.790588 
	C377.618256,274.303223 377.225159,268.800873 376.708282,263.333923 
	C376.027588,256.133942 373.283112,250.434509 365.158936,249.172440 
	C363.676331,248.942108 361.953308,248.465927 362.201233,246.485657 
	C362.461975,244.403275 364.377106,244.736679 365.788788,244.730011 
	C379.621155,244.664719 393.453735,244.641983 407.286255,244.652222 
	C408.561462,244.653152 410.151978,244.428589 410.731506,246.019440 
	C411.302094,247.585617 410.080963,248.447144 409.010193,249.261017 
	C404.759644,252.491776 403.680634,257.222198 403.313049,262.088348 
	C402.798859,268.895264 402.414551,275.729523 402.394745,282.553314 
	C402.292633,317.719360 402.308319,352.885773 402.349213,388.052002 
	C402.351776,390.252289 401.319214,393.152496 403.951447,394.384308 
	C406.519196,395.585968 408.726349,393.649261 410.755066,392.219421 
	C418.091461,387.048737 420.805267,377.009644 417.414001,368.057922 
	C416.811951,366.468628 415.183197,365.008911 416.577332,362.813324 
	C419.253662,364.099335 419.884857,366.837250 421.234375,369.150299 
	C421.636047,365.570282 421.163177,364.222687 419.455719,360.985779 
	C418.115753,358.445587 415.028290,356.995728 414.661865,353.453827 
	C417.975677,353.498993 418.607513,357.034058 421.725891,357.935822 
	C418.786896,353.290497 413.760864,350.650482 412.843567,343.898010 
	C418.539551,349.821594 423.711151,354.489624 427.156403,360.764923 
	C426.804504,350.658752 416.284058,345.986389 415.081024,336.315125 
	C419.996460,342.431641 424.911896,348.548187 429.908447,354.765656 
	C429.953308,349.787689 428.226624,346.646027 422.141479,340.000397 
	C418.469391,335.990082 413.548859,332.812103 412.971680,326.570679 
	C418.033142,332.215057 423.184326,337.695923 429.192169,342.493317 
	C423.682129,331.789948 412.260345,324.286011 411.868774,310.757904 
	C416.020569,316.592072 416.969757,324.752228 424.791748,327.962494 
	C415.626007,317.095001 411.788513,304.995270 415.324219,291.221436 
	C417.227386,290.130341 416.986084,292.788757 418.300354,292.440002 
	C420.539551,288.918427 419.288330,284.680481 420.502106,280.649170 
	C423.052887,281.345032 422.514984,283.638062 423.626617,285.477844 
	C425.902069,280.636566 426.351685,276.027100 423.737213,270.393311 
	C428.499603,272.217407 427.674255,275.653961 428.926300,278.942932 
	C430.662506,274.843994 429.589539,271.200195 429.317505,267.116760 
	C433.408905,268.965118 432.395203,272.706299 433.846283,275.671875 
	C435.898193,271.135529 434.195557,267.257202 432.914581,262.733429 
	C437.460144,264.124603 436.609253,268.187531 438.210754,271.174286 
	C441.341522,266.619751 438.577698,262.920441 437.205200,258.201843 
	C441.518677,259.555573 441.560364,263.110474 443.195801,266.126953 
	C444.161285,262.505280 442.066254,259.746368 442.577240,257.006226 
	C444.164185,255.676636 444.943787,257.703735 446.138855,257.776520 
	C446.488495,256.132843 444.737762,254.810043 445.952332,253.329147 
	C447.718292,252.370605 448.467926,254.605927 449.999786,254.613571 
	C451.287109,253.143936 448.978973,251.472717 450.238342,249.993164 
	C454.853180,248.427261 455.980835,252.929535 458.571625,254.891876 
	C460.326385,256.220947 461.878479,258.028107 465.156677,255.913528 
	C463.851624,259.389740 464.807190,260.814575 467.906738,260.592102 
	C467.407959,262.109528 467.055573,263.181549 466.689117,264.296387 
	C467.456177,265.565552 468.915802,263.665833 469.888916,265.297607 
	C469.447144,268.402130 466.755707,271.436249 467.578186,275.662994 
	C469.566833,272.999908 469.301758,269.310944 473.064026,268.232025 
	C473.927612,271.045380 470.759033,273.049347 471.693176,275.709656 
	C473.898224,276.222321 473.917542,272.728424 476.428864,273.482727 
	C476.395538,277.169220 472.755402,280.527313 474.828339,284.641876 
	C477.204529,283.518768 476.969055,279.886932 480.410156,279.572296 
	C480.201416,283.481598 476.607941,286.578705 477.746155,290.590820 
	C480.394470,291.595245 480.470917,287.640625 483.119995,288.348572 
	C482.525177,291.918060 479.929932,295.247070 481.292877,299.145386 
	C482.706024,299.850952 483.212982,297.203461 484.997803,298.388306 
	C484.253143,302.946442 481.588745,307.207184 481.657288,312.163574 
	C483.220551,311.812988 482.496429,309.325287 484.287994,309.238678 
	C486.058716,317.606659 481.516052,325.959564 467.686157,335.029877 
	C471.244263,334.544098 472.027832,334.050659 475.312225,331.808868 
	C477.704468,330.176025 479.160217,327.308380 482.874359,326.093536 
	C482.064514,330.058807 479.706116,332.072052 477.240906,333.866180 
	C472.908813,337.018951 468.127808,339.364197 463.114014,341.265656 
	C457.979614,343.212860 452.914124,345.317993 449.563873,350.167755 
	C459.059418,345.330109 470.170929,344.014343 478.235840,336.313812 
	C480.131805,337.910522 478.722870,338.874512 477.941193,339.769562 
	C474.510040,343.698303 469.800476,345.408203 465.066559,347.093048 
	C459.131348,349.205414 453.048370,351.059814 448.573395,356.253937 
	C453.147156,354.809967 457.668884,353.161896 462.309204,351.979004 
	C467.008484,350.781128 470.807220,348.004761 475.305878,344.404449 
	C475.012268,349.032654 472.380951,350.319977 470.056549,351.578583 
	C466.093567,353.724457 461.785370,355.053802 457.451355,356.300476 
	C453.189789,357.526245 448.846680,358.691376 444.669769,362.916534 
	C453.432800,361.448853 461.135101,360.751495 467.924286,355.577972 
	C468.743011,358.982483 466.579712,359.697327 464.997406,360.553162 
	C461.296875,362.554626 457.224976,363.465149 453.115723,364.233368 
	C447.884979,365.211273 442.838684,366.698425 438.499542,370.129395 
	C445.715729,366.392273 453.815430,369.305786 461.223755,366.745850 
	C454.916260,373.329498 445.263275,368.809479 437.587952,374.279510 
	C444.138336,375.368561 449.547546,374.364716 456.125214,371.844604 
	C452.985229,377.140503 449.026581,376.985626 445.192749,377.102661 
	C441.173767,377.225342 437.342194,378.023224 433.493927,380.189758 
	C435.679169,381.677826 438.796448,379.994843 440.553589,383.383972 
	C430.707336,383.512909 422.732269,387.232361 415.726654,393.147369 
	C416.568146,396.013275 418.612885,395.683990 420.334320,395.588470 
	C440.880127,394.448242 460.163635,389.430939 476.612701,376.396027 
	C495.097046,361.748260 505.807922,342.649719 508.900635,319.219025 
	C512.734497,290.173218 505.004120,264.726227 485.074463,243.267349 
	C468.976776,225.934479 448.355286,216.934601 425.376892,213.523956 
	C398.532166,209.539429 371.871399,211.143661 345.802704,219.084198 
	C324.072510,225.703247 304.460449,236.148178 289.339569,253.486282 
	C271.921173,273.458771 262.580902,296.174286 267.212158,323.334473 
	C270.723907,343.929504 287.122742,359.938385 307.802551,362.386108 
	C328.571442,364.844391 347.606079,343.449005 342.883545,322.975464 
	C342.704468,322.199249 342.761871,321.368469 342.711426,320.598633 
	C347.574615,319.336823 353.435547,322.329376 356.781586,327.631989 
	C362.391724,336.522644 360.733368,349.153198 352.424591,358.017059 
	C341.680634,369.478760 327.774200,373.170258 312.792236,371.903534 
	C271.183105,368.385468 255.429977,331.305664 259.413422,302.022003 
	C264.885162,261.797577 289.180084,236.211441 324.542206,219.756195 
	C347.220886,209.203033 371.421997,205.063980 396.349701,204.656738 
	C419.445831,204.279434 442.300751,205.862976 464.469757,212.866714 
	C488.926270,220.593140 508.969269,234.240067 523.029175,256.237976 
	C545.758789,291.800476 539.228333,341.932495 508.340179,370.736420 
	C490.982513,386.922852 470.572205,395.826385 447.439209,399.480896 
	C444.363708,399.966766 439.525513,399.038208 438.712372,402.701874 
	C437.927612,406.237793 442.771179,406.872009 445.228088,408.564178 
	C456.069183,416.030731 465.040131,425.428680 472.884033,435.825470 
	C492.583649,461.936432 509.404846,489.940887 526.120239,518.000916 
	C526.716919,519.002502 527.235046,520.051453 527.845154,521.044373 
	C531.108826,526.355652 531.793640,526.435486 536.491516,522.570740 
	C556.891418,505.788269 579.975891,499.485626 606.030273,504.829681 
	C628.886719,509.517822 648.176086,531.690674 650.322388,555.230103 
	C651.872864,572.234924 648.557068,587.641418 637.321472,600.950928 
	C634.299133,604.531189 634.941528,609.466248 633.287292,613.591980 
	C632.802917,614.800110 633.004395,616.371704 632.321777,617.397644 
	C627.220642,625.064148 629.210815,633.404724 629.970581,641.572327 
	C630.385315,646.029907 631.338989,650.446716 632.211243,654.849915 
	C633.404175,660.871948 636.019409,662.118286 641.875122,659.229797 
	C655.167236,652.673157 666.056885,643.301575 674.039795,630.758850 
	C697.117859,594.498474 695.260315,542.348022 662.831177,508.151001 
	C648.653503,493.200348 632.288818,480.858429 616.506042,467.808655 
	C605.312561,458.553436 594.288940,449.157562 585.754944,437.242004 
	C570.295593,415.656860 569.210510,389.319733 583.477417,367.958038 
	C593.925903,352.313751 609.355713,344.375549 627.657715,341.748047 
	C641.912415,339.701569 655.496094,341.854248 668.272766,348.789886 
	C683.483154,357.046600 692.445312,373.241211 690.177917,388.764130 
	C688.373962,401.114441 676.453491,408.264008 666.494751,402.968658 
	C659.397949,399.195068 657.513977,389.172852 662.843018,383.531128 
	C663.165405,383.558197 663.594543,383.470856 663.792419,383.645538 
	C666.515503,386.048584 669.388245,388.183929 673.166443,386.103485 
	C676.815979,384.093842 677.709595,380.445526 677.666016,376.679718 
	C677.570984,368.477173 672.973206,362.442139 667.003174,357.699036 
	C643.356018,338.911560 605.548706,346.148987 596.078369,378.438782 
	C591.707581,393.341431 594.304016,407.442139 603.139465,420.314392 
	C611.662720,432.731720 623.308167,441.978790 634.820801,451.314270 
	C651.256897,464.642151 667.959656,477.656586 682.231384,493.406586 
	C685.023315,496.487762 687.518005,499.837402 690.172302,503.044617 
	C691.309082,504.418243 692.164307,506.189667 694.873901,506.282593 
	C697.092651,500.505157 699.178772,494.513641 701.695374,488.708740 
	C703.494202,484.559509 705.332520,480.635834 703.763123,475.927338 
	C703.405151,474.853333 703.916565,473.190887 704.567261,472.130096 
	C707.731140,466.971771 709.816956,460.976562 710.689026,455.477783 
	C712.206787,445.907806 716.213135,437.175323 717.907776,427.793701 
	C718.414612,424.988068 718.917297,422.318665 720.205688,419.712433 
	C723.330505,413.391602 723.348816,406.165527 725.676636,399.614227 
	C728.798828,390.826935 725.789734,381.689972 727.573975,372.753693 
	C728.496887,368.131531 728.231873,363.233276 729.365112,358.477264 
	C730.426819,354.021667 728.494629,349.326508 729.790649,344.705353 
	C730.233337,343.126648 729.912048,341.258667 731.614502,340.370972 
	C733.307617,339.488129 734.294128,341.018585 735.502991,341.850067 
	C736.581604,342.591949 737.805176,343.159882 739.027222,343.648651 
	C741.489502,344.633362 742.488647,346.066132 741.073853,348.660858 
	C739.941406,350.737762 739.514954,353.295471 742.079773,354.208954 
	C745.040894,355.263611 745.175720,351.981201 746.177002,350.277985 
	C746.575928,349.599396 746.572083,348.679291 746.730225,347.864990 
	C747.032227,346.310120 747.606628,344.728973 749.367432,344.684479 
	C751.504211,344.630524 751.939697,346.487915 752.175415,348.174347 
	C752.479553,350.349823 752.965393,352.412567 754.797546,354.272766 
	C757.134644,352.768890 757.635071,350.468842 757.897339,347.986664 
	C758.060913,346.438568 758.562378,344.793121 760.414246,344.794006 
	C762.218628,344.794861 762.809692,346.402344 763.050781,347.940460 
	C763.436096,350.398926 763.771667,352.845459 766.328308,354.828796 
	C771.725281,347.987274 769.044983,339.197296 772.004028,331.172302 
	C774.533630,334.816498 774.272888,338.204315 774.469604,341.395996 
	C774.572327,343.062927 774.600952,344.688263 775.095520,346.296204 
	C775.704895,348.277313 775.395569,351.194489 778.207458,351.321136 
	C780.986694,351.446320 780.458130,348.580017 781.054382,346.803284 
	C781.434875,345.669525 782.052429,344.676636 783.648987,344.538696 
	C787.472778,346.878601 785.098633,352.606506 789.153809,355.194244 
	C791.169373,353.168701 791.520325,350.598541 791.912048,347.998627 
	C792.163391,346.330688 792.689453,344.438416 794.802490,344.596069 
	C796.536621,344.725403 796.881836,346.490173 797.239990,347.974182 
	C797.871094,350.588745 797.463806,355.010162 800.695496,354.730957 
	C804.596069,354.393951 802.533386,350.279053 802.550232,347.667725 
	C802.565491,345.308289 809.706177,339.454132 811.831299,340.144806 
	C813.735168,340.763580 814.153687,342.336914 813.915283,344.168396 
	C813.540100,347.051178 814.868591,349.265076 817.396240,350.122925 
	C819.820740,350.945740 822.411377,350.021210 824.410034,348.436829 
	C826.785706,346.553558 825.479126,344.218872 824.679871,342.040375 
	C823.172241,337.931366 821.136841,334.403687 817.381897,331.654602 
	C811.115845,327.067017 810.716187,319.280762 808.216614,312.667023 
	C808.112061,312.390503 808.136536,311.890930 808.316956,311.706482 
	C813.275574,306.633972 808.923767,302.426117 806.845337,298.268799 
	C776.250854,237.072525 732.196228,188.316269 672.808777,153.841064 
	C634.837219,131.798111 593.876526,118.668991 550.402161,113.112923 
	C498.779022,106.515419 448.484802,112.926849 399.052460,128.296112 
	C344.626465,145.217987 297.379120,173.921570 257.946838,215.026947 
	C224.037872,250.374634 199.352524,291.623352 182.265976,337.475311 
	C169.743835,371.078674 162.264023,405.817139 159.465332,441.511871 
	C157.205338,470.335602 158.688324,499.052887 163.542618,527.587585 
	C170.787704,570.176086 184.681412,610.458740 205.571609,648.259705 
	C217.125641,669.166809 230.753738,688.689514 246.367905,706.803955 
	C248.140213,708.860046 250.548096,710.612000 250.899826,714.100952 
	C247.881119,714.187805 246.591660,712.065613 245.134109,710.468140 
	C227.167862,690.777344 212.517258,668.754883 199.928207,645.348083 
	C182.224213,612.431091 169.872269,577.551331 162.382874,540.945068 
	C155.604034,507.811707 152.947433,474.385193 155.886368,440.642792 
	C161.339844,378.031006 179.781525,319.595398 213.413269,266.333771 
	C247.128403,212.940063 292.195404,171.963303 349.153442,144.295425 
	C390.066223,124.421677 433.283203,112.643356 478.479645,108.726288 
	C572.828186,100.549324 656.262695,127.091766 728.025757,189.141159 
	C765.669556,221.689621 794.116028,261.194702 814.658569,306.433105 
	C816.040222,309.475647 818.242737,310.534607 821.082214,311.233978 
	C822.729797,311.639740 824.413452,312.182037 825.828918,310.921295 
	C827.487793,309.443665 826.281738,307.753326 825.690857,306.318604 
	C822.010010,297.380951 817.784912,288.691620 813.186523,280.195709 
	C775.789368,211.100876 721.858154,159.444458 650.344177,126.580528 
	C618.799133,112.084099 585.627319,102.913162 551.102783,99.182564 
	C461.413727,89.491096 378.587830,109.434425 303.241180,158.794952 
	C246.600006,195.901260 206.641220,247.405273 178.702774,308.617249 
	C163.256134,342.460205 152.887421,377.877289 147.645935,414.654877 
	C143.287842,445.234039 142.671478,475.974762 145.987671,506.791260 
	C152.274536,565.213745 170.963867,619.355713 201.434097,669.480408 
	C209.745148,683.152405 218.955200,696.231506 229.040497,708.681946 
	C231.292999,711.462708 233.983871,714.085083 234.671494,718.190247 
	C231.771729,718.925110 230.617462,716.864258 229.276611,715.356873 
	C209.082977,692.655396 193.185745,667.127075 179.821411,639.949158 
	C160.027618,599.696167 147.456772,557.221680 142.006180,512.765930 
	C137.998245,480.076782 138.658371,447.365936 143.381317,414.680206 
	C151.254974,360.189667 169.227936,309.373291 198.054535,262.523315 
	C230.220459,210.246140 272.815216,168.699341 326.728424,138.918747 
	C367.786133,116.239243 411.826904,102.541733 458.006622,95.992973 
	C547.698242,83.273773 630.647827,101.673393 705.676819,152.806580 
	C762.674011,191.650864 804.053284,243.587555 830.772949,307.094879 
	C833.837463,314.378571 838.000610,321.279053 839.653137,329.191864 
	C840.166504,331.650421 842.364441,333.187103 845.940918,335.150482 
	C844.167053,328.009216 843.849365,321.918579 841.090942,316.247589 
	C838.248047,310.402832 834.297668,305.237823 834.484863,297.890930 
	C834.714844,288.860962 839.314941,282.165802 843.662598,275.127838 
	C844.653687,273.523560 846.267212,273.484985 847.292236,275.184418 
	C852.461487,283.754883 857.910156,292.165070 856.054626,303.073914 
	C855.264709,307.717987 851.685608,310.748474 850.394104,315.129456 
	C849.416260,318.446564 848.854431,321.556091 849.308044,324.878296 
	C851.319763,339.613007 859.415955,351.443756 867.715393,363.163818 
	C867.847229,363.350006 868.324219,363.291809 869.511841,363.501862 
	C870.670227,350.906372 880.696289,344.314362 888.663086,335.056458 
	C891.323669,340.998016 892.405212,346.506805 894.275879,351.732666 
	C898.076965,362.351379 893.848328,370.460449 886.820801,377.862305 
	C882.666504,382.237793 882.464111,387.792572 883.651001,392.923462 
	C885.784851,402.148041 888.890747,411.148926 891.642578,420.227478 
	C891.872131,420.985016 892.406067,421.735229 893.493225,421.700043 
	C895.192810,420.597290 894.805115,418.764587 894.772095,417.203644 
	C894.641785,411.047791 897.734924,405.352600 897.012146,399.025482 
	C896.715759,396.431305 899.460510,394.774231 902.105835,394.332214 
	C904.520447,393.928772 906.283997,395.174835 907.336243,397.329407 
	C908.645264,400.009735 907.769470,402.503174 905.653931,404.041626 
	C893.525085,412.861603 897.948059,425.393066 898.070923,436.959473 
	C898.074768,437.325287 898.643127,437.685089 899.122070,438.254150 
	C903.987915,435.034912 903.185852,429.678284 903.904297,425.255890 
	C905.952942,412.645752 910.608215,407.033020 922.875061,403.785034 
	C927.158630,402.650848 930.429993,404.643646 929.948120,408.719208 
	C928.998047,416.753998 928.287109,425.003113 920.904419,430.520233 
	C919.119568,431.854034 917.442505,432.917511 915.232605,433.360901 
	C906.072693,435.198639 900.570068,445.606995 902.563721,454.644562 
	C903.797302,460.236511 900.906189,465.955109 899.321655,471.486847 
	C898.403931,474.690826 897.790833,486.848358 898.793396,490.739990 
	C901.654541,489.238861 901.624207,486.598724 901.927795,483.977173 
	C903.137268,473.534363 907.702271,465.406799 917.680908,460.784790 
	C922.131226,458.723419 926.892761,458.726746 931.325012,459.076233 
	C934.936035,459.360931 938.864136,458.571442 943.283752,460.421478 
	C938.183289,466.202606 937.171448,473.542297 933.617920,479.468933 
	C929.908508,485.655609 922.922729,488.492645 915.892700,489.189941 
	C904.644897,490.305603 899.049011,494.519226 897.569092,506.110809 
	C895.904114,519.152222 894.325256,532.183167 891.528503,545.041199 
	C891.406067,545.603882 891.756165,546.269287 891.955872,547.217957 
	C894.790344,546.569336 895.392700,544.585083 895.601746,542.411377 
	C897.034180,527.519958 904.974792,520.596008 920.621521,520.270386 
	C923.584778,520.208740 926.559875,519.444580 929.566101,519.704346 
	C936.285706,520.284973 941.121582,526.053101 940.200928,532.319458 
	C939.580444,536.542542 936.323608,539.550232 932.488525,539.420654 
	C929.537292,539.320984 927.663513,537.894287 927.729004,534.841736 
	C927.798218,531.618347 929.948242,531.128845 932.635742,531.677490 
	C933.254150,531.803772 933.896179,531.814331 934.669373,531.892456 
	C936.146606,527.131470 932.841675,525.750977 929.751709,524.645752 
	C925.593628,523.158508 921.171448,524.992676 919.738403,528.843201 
	C918.518311,532.121155 916.696777,535.236694 915.833923,538.511597 
	C914.390503,543.990479 910.640076,546.208008 905.853455,546.924194 
	C894.664246,548.598450 892.405701,558.066467 888.486938,566.131653 
	C888.141113,566.843323 888.326904,567.787964 889.421814,568.366943 
	C891.700317,568.254150 892.885620,566.182434 894.441895,564.845825 
	C899.603210,560.413147 905.580811,559.016418 912.146179,559.772583 
	C917.631042,560.404297 921.979370,564.857666 921.737244,569.595947 
	C921.578369,572.706116 920.114746,575.152222 916.717163,575.452148 
	C913.526001,575.733887 913.046570,573.439880 912.834656,570.863953 
	C912.545227,567.347534 910.531006,567.001465 908.084229,568.919067 
	C904.604370,571.646484 900.581116,573.034424 896.548462,574.663696 
	C887.943115,578.140442 883.349182,585.422485 879.897278,593.658752 
	C876.100220,602.718628 872.055664,611.674744 868.127869,620.679871 
	C867.465271,622.198792 866.839172,623.736206 867.544128,626.223511 
	C872.214539,623.218689 876.490479,620.300903 879.935425,616.333252 
	C881.558960,614.463257 880.656616,612.284851 880.135620,610.144836 
	C877.371399,598.789490 884.831238,585.322388 895.657532,581.864624 
	C896.993896,581.437805 897.937012,581.585632 898.531128,582.894592 
	C898.804504,583.496887 898.932312,584.165894 899.211426,584.764954 
	C900.660217,587.874207 898.584717,592.637085 901.956665,594.287964 
	C904.645081,595.604309 908.469482,594.562439 911.787781,594.641479 
	C914.766296,594.712402 918.349670,594.039795 920.323669,596.390015 
	C921.970947,598.351135 922.083374,601.505859 924.511597,603.331787 
	C925.356934,603.967407 924.474121,605.183777 924.000854,606.048706 
	C921.112976,611.326294 918.261292,616.646118 912.841614,619.866577 
	C909.706116,621.729675 908.861206,623.528564 912.164673,626.273682 
	C915.195923,628.792603 916.607056,632.366455 917.077332,636.266418 
	C903.840637,640.578979 892.719971,638.597534 887.554077,627.859558 
	C885.935608,624.495361 882.891968,623.781189 879.485657,625.225281 
	C875.913208,626.739807 872.938904,629.155090 870.061523,631.711731 
	C867.688049,633.820679 866.167847,635.981995 869.012512,638.822876 
	C870.344482,640.152893 870.079346,641.439087 869.022339,642.807617 
	C864.089111,649.194702 860.796265,657.102539 852.551819,660.417053 
	C851.839172,660.703674 850.742676,661.549011 850.802368,662.007568 
	C851.351868,666.229858 854.132446,669.480713 856.044189,673.096252 
	C857.182617,675.249268 859.354004,674.733398 861.396545,674.080994 
	C863.473083,673.417725 865.781677,672.897644 867.568420,674.573914 
	C869.458801,676.347290 867.398621,677.790955 866.846436,679.419678 
	C866.272156,681.113403 865.941895,683.318604 867.828918,684.353394 
	C869.584900,685.316345 870.764099,683.709412 871.962463,682.468506 
	C874.710876,679.622864 876.498169,676.046814 879.503540,673.337402 
	C881.719910,671.339355 881.195129,668.914612 877.822266,668.448853 
	C874.617004,668.006165 873.217285,666.354919 874.052246,663.382019 
	C874.898987,660.367310 877.326904,659.323669 880.344421,659.879272 
	C884.611938,660.665161 887.934387,665.298584 888.280212,670.815857 
	C889.173035,685.060486 873.131165,696.854614 859.194336,692.244080 
	C855.222900,690.930298 851.389160,688.656006 846.880249,689.750610 
	C846.633057,692.575378 849.114258,693.176819 850.109375,694.789612 
	C851.436279,696.940186 851.887451,699.152405 850.612549,701.384888 
	C849.572510,703.205933 847.691895,703.678955 845.810730,703.108093 
	C843.259338,702.333923 842.951172,700.350891 843.246826,697.905945 
	C843.606079,694.934265 841.299133,694.337830 839.045105,694.164673 
	C835.259888,693.873840 831.799622,695.094055 828.575500,696.955627 
	C818.631470,702.697144 810.962463,711.109314 802.858826,719.004700 
	C802.278381,719.570129 801.836243,720.319397 802.329468,721.316772 
	C804.398560,721.967773 805.704224,720.404724 807.106812,719.411011 
	C815.933899,713.157349 825.645813,710.937683 836.405334,712.034790 
	C840.857239,712.488647 844.073120,715.105225 847.763977,716.844482 
	C852.961060,719.293518 856.704041,723.907532 861.505737,726.200623 
	C861.479004,728.015381 860.765015,728.508545 860.026001,728.867004 
	C854.815857,731.394348 849.881287,734.358337 844.920166,737.358826 
	C836.835022,742.248779 820.733948,742.866943 811.398438,735.355835 
	C803.089966,728.670898 790.755737,730.509583 784.412170,738.917297 
	C782.717590,741.163269 783.258362,742.709045 785.869751,743.292053 
	C788.972961,743.984924 792.160583,744.156006 795.257751,743.159485 
	C805.854614,739.750000 814.212158,744.526001 821.630615,751.046814 
	C825.355896,754.321472 826.726196,759.618958 827.862366,764.386047 
	C828.589233,767.435669 830.612671,770.470276 829.432800,774.652527 
	C821.129089,771.111816 811.803345,773.590332 803.935303,769.071655 
	C799.107544,766.299011 795.583252,761.989441 792.989197,757.097839 
	C788.083984,747.848206 781.082031,745.414795 771.717041,750.459595 
	C767.206055,752.889587 763.103149,756.087891 758.872681,759.020935 
	C757.666443,759.857178 756.514648,760.895752 756.603577,762.872864 
	C759.024719,764.476929 761.711975,763.673889 764.257446,763.492065 
	C772.921997,762.873230 780.347107,765.440002 786.268982,771.875366 
	C787.937439,773.688416 789.656738,774.965393 792.276123,774.799866 
	C795.778931,774.578613 796.576721,776.465942 794.890625,779.143127 
	C792.033203,783.680481 787.646179,786.236572 782.335571,786.088257 
	C777.597656,785.955933 773.018616,784.611084 770.925415,779.525208 
	C769.957458,777.173157 768.567993,775.980957 765.911926,776.890198 
	C765.327820,777.090088 764.546753,777.059814 763.957886,776.850281 
	C749.532593,771.717651 737.997009,778.417114 726.840515,786.109253 
	C722.023010,789.430847 717.216919,792.935608 713.265198,797.757446 
	C714.346741,798.401428 714.790100,798.900330 715.155090,798.848389 
	C725.490723,797.378113 736.055054,800.128357 746.328918,796.916199 
	C753.992249,794.520203 765.539551,798.820007 770.492065,805.447632 
	C774.678406,811.049927 775.477722,816.530334 772.715454,820.691406 
	C769.859070,824.994263 762.648132,827.208801 756.630920,825.794434 
	C748.895569,823.976318 743.820007,818.432495 740.128601,812.253235 
	C736.544128,806.253174 732.352051,803.020386 725.437622,803.292969 
	C719.168091,803.540100 713.231323,804.869812 707.412231,807.641479 
	C709.036682,810.270569 710.893250,809.572205 712.445496,809.793091 
	C721.026123,811.014343 729.000000,813.382751 735.017456,820.263000 
	C742.564331,828.892029 743.591858,841.536560 737.261353,850.211304 
	C734.172119,854.444641 730.026062,856.592468 724.824158,856.322388 
	C719.731995,856.057922 715.773926,851.189758 716.863586,846.808899 
	C717.291443,845.089050 718.212402,843.700378 720.105591,843.423035 
	C722.020691,843.142456 723.346191,844.121033 723.971863,845.865234 
	C724.610474,847.645508 724.465820,850.487244 727.529358,849.128296 
	C730.457092,847.829651 732.125244,844.830872 730.469482,842.146118 
	C728.600159,839.115295 728.391541,836.501709 729.146118,833.272278 
	C729.456177,831.945129 728.777405,830.328979 728.360474,828.899109 
	C725.565796,819.315430 707.782959,811.801025 698.995789,818.043274 
	C700.189758,820.528381 705.475281,821.023865 702.933289,825.844910 
	C698.907471,823.643982 695.902161,818.501831 690.985779,820.332764 
	C686.922058,821.846130 683.780640,825.316772 681.442993,829.922363 
	C684.930725,830.628723 687.851868,831.013489 690.643860,831.836487 
	C694.445374,832.957092 697.679382,834.876282 698.672424,839.208679 
	C699.302063,841.955750 698.590454,844.190552 696.332520,845.806030 
	C694.787720,846.911377 693.030945,847.476501 691.188660,846.379761 
	C688.732727,844.917725 688.556519,842.834351 689.418091,840.324463 
	C690.017944,838.576965 689.500183,837.117371 687.774963,836.088196 
	C683.280579,833.406799 670.854980,835.376587 666.783325,839.486450 
	C666.952576,840.772827 668.087097,841.088074 668.976135,841.156555 
	C677.072327,841.779541 682.563599,847.299500 686.883545,852.819885 
	C691.357666,858.537231 694.200256,865.838440 694.315735,873.565002 
	C694.364441,876.826355 692.843689,878.044556 690.016479,875.646851 
	C686.903564,873.006958 683.336121,872.272400 679.353821,872.242065 
	C670.027222,872.170776 662.086731,867.937988 654.656006,862.940247 
	C650.067444,859.854187 645.814087,856.367004 640.153625,855.548157 
	C637.939392,855.227844 635.595459,854.712280 633.370667,856.609741 
	C636.351562,862.105835 643.322449,861.626953 646.607910,866.779663 
	C649.698853,871.627441 652.151917,876.225830 653.043457,881.980286 
	C653.907593,887.557983 655.495239,892.909546 650.853760,898.684265 
	C645.535095,887.831543 635.174866,890.092285 626.664062,888.380981 
	C616.958740,886.429443 609.333313,881.270386 602.024780,875.302979 
	C598.214233,872.191650 594.354858,869.426025 589.416626,868.614014 
	C586.810852,868.185547 584.120361,867.731934 581.718567,870.607849 
	C586.190735,872.987183 590.526367,875.207825 594.778320,877.578613 
	C599.754395,880.353149 601.677856,886.472534 599.046997,890.768555 
	C597.040466,894.045105 592.852234,895.184448 589.989746,892.982910 
	C586.925171,890.625793 585.785767,887.515686 588.779663,884.452820 
	C591.254639,881.920898 589.940796,880.335266 588.108276,878.665283 
	C584.157471,875.065002 579.305664,873.364441 574.163574,872.418335 
	C572.679626,872.145325 571.094910,872.277283 570.031311,873.600342 
	C568.790283,875.144043 570.017090,876.391907 570.685425,877.683655 
	C570.761780,877.831238 570.864014,877.965332 570.944946,878.110840 
	C575.613403,886.497009 575.614441,886.513000 565.945312,887.165955 
	C562.725769,887.383362 559.768188,888.460327 556.847839,889.709229 
	C546.576843,894.101685 536.493835,894.590576 526.846436,888.068970 
	C523.596130,885.871765 521.478333,886.250305 520.014282,890.116821 
	C517.629211,896.415771 513.091553,901.039307 507.724731,904.881348 
	C504.595673,907.121338 503.267242,912.157837 499.575012,912.508606 
	C495.936005,912.854187 494.512756,907.778992 491.397766,905.835266 
	C484.631073,901.612915 479.120667,896.218811 475.983307,888.630798 
	C474.484833,885.006470 471.751099,886.198242 469.336395,887.682495 
	C464.883392,890.419617 460.194733,892.530090 454.964233,893.120605 
	C449.044434,893.788940 443.327545,892.964294 437.939636,890.300293 
	C433.378326,888.045044 428.626495,886.709473 423.473907,887.207642 
	C419.417267,887.599915 418.709991,885.651306 420.285492,882.389587 
	C421.224121,880.446289 422.465942,878.651611 423.489166,876.745972 
	C424.107269,875.594788 424.890442,874.400085 423.928040,873.027466 
	C422.933594,871.609131 421.577240,871.275085 419.970306,871.684875 
	C415.436035,872.841248 410.956726,874.122070 407.285980,877.250427 
	C405.239594,878.994507 403.756653,880.696594 405.837494,883.563232 
	C407.416656,885.738953 406.807312,888.044312 404.878357,889.859375 
	C402.820953,891.795105 400.299896,892.063293 397.938049,890.796875 
	C395.497833,889.488464 394.654205,886.996155 395.133362,884.356689 
	C395.691559,881.281860 397.453339,878.936035 400.216705,877.294006 
	C403.769684,875.182678 407.222931,872.903503 411.121460,870.442627 
	C407.584686,867.827515 404.159973,867.787048 400.877563,869.713440 
	C398.171906,871.301392 395.865234,873.552429 393.264343,875.338684 
	C385.097595,880.947205 377.120728,886.645325 366.668823,887.848511 
	C362.218262,888.360840 357.837494,890.175842 353.187866,890.675781 
	C349.047302,891.120972 346.170227,894.143311 343.983307,897.595337 
	C339.484924,894.267090 339.319275,891.475464 342.627197,877.851440 
M874.131042,499.331818 
	C874.206116,499.007874 874.259827,498.677185 874.359558,498.361053 
	C875.136963,495.896942 874.267029,494.091125 872.035950,492.992126 
	C869.994873,491.986694 868.490234,493.217682 867.241272,494.595093 
	C865.741760,496.248779 865.525635,498.284302 866.746826,500.118286 
	C868.318298,502.478333 870.247192,500.913147 872.064941,500.281952 
	C872.680420,500.068237 873.370667,500.069794 873.732544,500.457520 
	C872.989746,501.461670 872.531006,502.448547 873.789124,503.427429 
	C876.575867,505.595825 879.352478,507.777405 882.331482,510.108856 
	C883.660400,506.719940 882.339355,504.179840 881.242432,501.682861 
	C879.042664,496.675476 878.101501,496.501343 874.131042,499.331818 
M624.949951,833.130005 
	C624.406677,839.613953 621.564209,845.316711 618.361633,850.614380 
	C619.591553,851.758423 620.405396,851.530762 621.171936,851.190552 
	C628.762573,847.820679 631.655823,840.345093 636.114136,834.205750 
	C638.162292,831.385376 637.468811,828.647034 637.021729,825.645203 
	C636.549683,822.475647 637.974426,819.785645 641.350464,819.478333 
	C644.681152,819.174988 645.877258,821.881104 646.179138,824.717651 
	C646.613098,828.794434 645.631409,832.647339 643.853821,836.330444 
	C643.184570,837.717163 641.608215,838.942749 642.715515,840.826355 
	C649.114014,837.290710 651.806030,830.924988 650.248169,822.537109 
	C648.736267,814.396362 650.282715,806.805542 655.026367,800.225098 
	C659.376892,794.189880 666.719666,790.413635 668.186279,781.204712 
	C675.387756,788.364441 675.968323,797.289124 679.173401,805.510620 
	C681.566528,802.612122 680.617188,799.819458 680.232666,797.195679 
	C679.388611,791.436340 680.105225,786.139771 682.723022,780.752625 
	C685.681030,774.665405 687.782104,768.139893 687.919189,761.177368 
	C687.990479,757.560791 686.725769,754.681213 683.857483,752.511597 
	C682.286255,751.322937 680.546692,750.808655 678.749939,751.908630 
	C676.741455,753.138306 677.501526,754.637390 678.480469,756.164673 
	C679.452393,757.681030 679.067139,759.034241 677.679688,760.096558 
	C676.193542,761.234253 674.570190,761.397766 673.059387,760.258301 
	C670.382629,758.239319 669.525330,755.532593 670.434387,752.298767 
	C671.823425,747.357483 676.073181,744.041992 681.504150,743.696106 
	C689.381531,743.194275 695.658447,746.516052 699.847961,752.844360 
	C706.698547,763.192139 709.777100,774.552917 706.886719,787.048889 
	C706.393555,789.181213 705.169189,791.533447 708.116943,794.035156 
	C715.148132,788.751648 720.124756,781.924561 723.226685,773.724792 
	C724.789612,769.593140 724.825439,765.445862 722.880249,761.139099 
	C720.513306,755.898499 717.985535,750.706116 718.606812,744.467102 
	C719.613464,734.357544 728.482788,725.824219 738.308105,726.242432 
	C747.943054,726.652527 754.214111,734.011414 754.362976,744.912292 
	C754.391174,746.975464 753.558716,749.216187 755.020020,751.064148 
	C756.592529,751.450989 757.270874,750.438660 758.024292,749.559937 
	C764.659668,741.821777 764.338257,735.516174 757.138184,728.073669 
	C749.213318,719.881897 746.973816,710.452209 750.158752,699.306824 
	C751.450745,694.785828 754.055786,690.371094 753.187439,685.317017 
	C753.005737,684.259155 753.217163,683.269287 754.333496,682.839478 
	C755.600342,682.351562 756.642700,682.977600 757.458557,683.856628 
	C760.184753,686.793579 763.687317,688.932800 766.375488,691.756042 
	C769.522156,695.060974 773.387939,697.811035 775.323303,702.337769 
	C779.543762,712.209167 778.563843,721.474121 773.015625,730.464417 
	C771.237305,733.345947 769.204590,736.185486 770.174316,739.977783 
	C774.382568,738.858582 774.571106,738.997437 776.016235,737.034973 
	C782.588562,728.109619 787.896423,718.588196 789.886292,707.469543 
	C790.447510,704.333374 789.941833,702.277771 786.614624,701.396057 
	C784.198303,700.755676 783.004517,699.001343 783.171936,696.552979 
	C783.322327,694.354187 784.654846,692.903931 786.743896,692.185730 
	C789.043274,691.395203 791.083069,691.924500 792.651794,693.703064 
	C795.158936,696.545593 795.565613,700.030884 794.993835,703.582031 
	C794.439514,707.024170 793.489075,710.355225 792.068787,713.610413 
	C790.460388,717.296753 787.995850,720.717468 787.454956,725.218567 
	C799.223938,717.825256 814.116089,687.098389 810.282043,676.560120 
	C801.191345,686.992065 789.301086,683.627686 778.126831,684.261963 
	C777.440369,677.737000 773.656372,672.188110 774.651978,665.680847 
	C774.941162,663.790588 773.285828,662.839172 771.934692,661.808655 
	C767.844666,658.688965 763.889954,655.480652 762.368286,650.175232 
	C761.652954,647.681396 759.468628,647.264526 757.133118,647.292542 
	C751.134460,647.364563 745.134033,647.316467 739.136597,647.435791 
	C737.479553,647.468750 734.917053,646.797363 735.125122,649.706909 
	C735.307251,652.252991 737.648193,651.766846 739.434814,651.925598 
	C743.836426,652.316833 748.231689,652.780090 752.629517,653.214355 
	C752.604675,653.396301 752.579895,653.578186 752.555054,653.760132 
	C750.420105,653.952637 748.285217,654.145142 746.062073,654.345581 
	C745.376526,657.021606 744.685669,659.234253 745.253113,662.115967 
	C746.819397,670.070618 745.245850,673.471375 739.720764,675.712585 
	C739.720764,671.665771 739.743225,667.852844 739.716309,664.040344 
	C739.653259,655.110291 739.643677,655.110352 736.497009,654.758362 
	C738.528931,659.251465 735.302612,662.512451 734.495850,666.794434 
	C731.990784,663.931824 733.316345,660.905151 732.553223,657.944458 
	C728.403687,659.294617 725.572754,657.372131 723.788025,654.494324 
	C721.681946,662.874329 721.294434,671.198975 720.054138,679.535889 
	C718.994690,665.770935 716.092712,652.517639 711.751221,639.305176 
	C714.807861,639.504089 716.953064,639.599670 719.089294,639.794800 
	C721.338867,640.000305 723.732300,639.203003 726.127502,640.796326 
	C724.417480,643.242249 726.936340,646.058777 725.563477,648.683899 
	C723.488098,647.846375 723.280945,645.438843 720.796021,644.819336 
	C721.223267,647.284058 715.294922,649.703064 721.089050,651.674744 
	C724.132507,652.710266 727.889099,652.537903 730.895935,651.173157 
	C733.911072,649.804810 731.003845,646.616089 731.925537,644.322510 
	C732.369568,643.217651 732.002197,641.786621 732.002197,640.575928 
	C733.844543,639.445740 735.727539,639.766174 737.518066,639.768372 
	C747.015625,639.779907 756.513306,639.939270 766.010193,639.892090 
	C768.383057,639.880310 771.413940,640.498901 772.494202,637.453613 
	C773.533203,634.525024 770.363098,633.770996 768.973755,632.166016 
	C771.156860,628.459290 771.461731,625.091675 767.917114,622.581543 
	C764.278687,620.004883 759.430420,620.741882 753.689453,622.675354 
	C757.961243,623.081604 760.782837,623.349976 763.604431,623.618286 
	C759.160339,626.089539 753.999878,623.761658 749.605286,626.915833 
	C753.841187,633.215454 761.630798,626.964355 766.542358,632.018738 
	C761.763062,634.474976 755.527832,631.077576 753.020508,637.552612 
	C751.955139,635.651550 752.069824,633.414551 749.520874,633.389893 
	C745.529480,633.351318 741.362488,632.421814 737.611633,633.853394 
	C732.815125,635.683899 728.906433,633.563354 724.661438,632.232849 
	C729.993835,629.859436 735.543640,629.730957 741.137451,630.079773 
	C743.046509,630.198853 745.213806,630.450989 745.538086,628.039673 
	C746.235779,622.853821 750.125793,618.461182 749.069702,612.841919 
	C748.597046,610.326782 750.737427,608.728027 752.314758,606.810730 
	C745.227661,601.518616 745.246216,594.432312 747.605591,587.429749 
	C748.650696,584.328003 748.278198,583.565613 745.523560,583.068359 
	C744.535828,582.890076 743.198547,582.807922 743.018799,581.751709 
	C742.244385,577.200134 739.187744,578.137024 735.475830,579.367493 
	C735.817078,574.810608 736.205261,570.932434 736.365906,567.044861 
	C736.481750,564.243225 736.897949,560.791199 734.140320,559.314087 
	C729.773376,556.974976 727.332886,553.198303 724.519104,549.470398 
	C720.728210,544.448059 716.406921,544.082031 713.351257,547.867676 
	C711.811401,549.775513 712.018494,551.945679 712.243286,554.068115 
	C713.404053,565.027832 713.979126,575.976440 712.289246,586.940125 
	C708.628296,610.691345 698.068909,630.666565 680.253479,646.940796 
	C669.069458,657.157288 656.158203,664.096313 641.967896,668.890503 
	C637.171936,670.510803 635.453552,673.471985 636.401489,678.438171 
	C639.103149,692.592041 641.876953,706.739319 644.156982,720.963745 
	C645.476746,729.197510 648.894714,736.809204 650.232849,745.086365 
	C651.096008,750.425354 654.344177,755.670898 657.517090,760.273315 
	C661.857056,766.568604 660.708008,766.678833 654.396667,770.710876 
	C653.153625,771.504944 651.684570,772.020264 650.252808,772.430847 
	C643.982971,774.228699 641.131836,771.990723 640.780762,765.543091 
	C640.501038,760.404419 640.688538,755.248230 640.517944,750.175415 
	C640.309937,743.988708 638.699585,737.882874 638.462341,731.471924 
	C638.117737,722.158997 635.429993,712.932068 633.733276,703.669983 
	C632.529236,697.097168 631.311523,690.526733 630.092651,683.915955 
	C628.345215,684.385437 628.210144,685.225891 628.182739,686.059082 
	C627.784607,698.185486 627.863342,710.351746 628.119629,722.440613 
	C628.401855,735.752502 626.649292,749.192078 630.569336,762.542664 
	C632.123901,767.836853 634.071533,773.507141 634.120300,779.377258 
	C634.139160,781.648560 636.135193,783.092041 637.891602,784.425415 
	C641.843384,787.425537 643.758423,794.020264 642.062317,798.456238 
	C641.665771,799.493347 641.007324,800.370422 639.999756,800.374207 
	C635.105164,800.392761 632.614929,803.061829 631.136780,807.467896 
	C630.534058,809.264282 628.926392,810.732483 627.736755,812.320618 
	C626.274963,814.272156 624.524963,814.900635 622.826965,812.755310 
	C621.082397,810.551208 618.931458,808.339783 618.156372,805.770142 
	C616.801575,801.278442 613.915649,800.268860 609.858521,800.366638 
	C599.034912,800.627625 588.210022,800.908875 577.384399,800.972778 
	C573.348511,800.996643 571.445312,802.952454 570.229614,806.549133 
	C568.561523,811.484619 568.497986,816.738464 566.933594,821.651001 
	C565.566162,825.945312 567.257996,827.572021 571.373474,827.648438 
	C579.320923,827.795959 586.212524,830.673035 592.291992,835.943237 
	C595.764648,833.413208 598.037415,829.755737 601.839783,827.367920 
	C608.312134,823.303101 616.236633,823.079102 622.375366,818.546875 
	C623.462158,817.744507 624.955505,817.405884 626.131287,818.334351 
	C627.496338,819.412170 627.386841,821.065735 626.794922,822.478699 
	C625.472534,825.635742 625.424683,828.964355 624.949951,833.130005 
M382.431854,696.370300 
	C382.378693,715.020325 381.996429,733.668762 382.562958,752.321350 
	C382.690948,756.534851 385.704834,759.927673 384.898285,764.419006 
	C383.735168,770.895996 387.432556,775.448608 394.134827,775.864075 
	C402.580353,776.387573 411.057678,776.565369 419.522034,776.585999 
	C440.289459,776.636658 461.061951,776.249023 481.822418,776.609985 
	C488.448425,776.725220 493.554199,775.421082 497.156250,769.631042 
	C498.814789,766.964966 501.240326,766.966980 502.720551,769.537231 
	C506.621918,776.311523 512.969849,776.728821 519.601562,776.625916 
	C532.494873,776.425903 545.405823,775.626831 558.275330,776.068909 
	C573.924500,776.606323 589.564331,776.408447 605.206909,776.602844 
	C614.129517,776.713745 618.368408,772.049316 617.802612,763.082031 
	C617.711121,761.632629 617.794800,759.956177 618.437744,758.716614 
	C620.444885,754.846436 620.581360,750.658142 620.611694,746.549561 
	C620.772705,724.732910 620.732117,702.914917 620.790466,681.097412 
	C620.798279,678.195312 621.055969,674.922791 617.346558,674.335938 
	C613.476379,673.723755 609.459290,673.168396 607.004517,677.934753 
	C604.919312,681.983276 602.882263,686.205688 600.330078,689.848694 
	C598.090942,693.044800 595.210266,695.892517 593.461914,699.487915 
	C591.028687,704.491577 586.678772,707.963135 583.490967,712.337219 
	C579.852844,717.329224 573.432983,719.829895 571.577759,726.514648 
	C570.830688,729.206665 569.078979,732.326355 565.781433,732.947937 
	C558.870728,734.250488 554.700012,739.641602 549.432861,743.383362 
	C547.157532,744.999695 544.819641,746.584045 543.720215,749.454712 
	C543.031982,751.251709 541.201172,751.210022 539.457214,751.321472 
	C530.998169,751.862000 524.180603,757.921875 515.706482,758.506165 
	C515.433655,758.524963 515.190369,758.904907 514.924561,759.104736 
	C509.361328,763.286072 503.297058,763.243164 496.792328,761.773376 
	C489.811371,760.195984 483.318604,757.173767 476.306427,755.602417 
	C471.378052,754.497986 467.499268,749.764160 461.714386,750.588562 
	C461.367554,750.638062 460.832428,750.104126 460.544983,749.721436 
	C456.547089,744.398987 449.845001,742.125977 445.921997,736.692078 
	C444.709930,735.013245 442.717407,734.412720 440.702209,734.011169 
	C436.692169,733.212097 433.744141,731.133362 432.218628,727.149780 
	C430.537720,722.760193 427.876343,719.324890 424.071350,716.197083 
	C419.416687,712.370789 414.665283,707.701538 412.248199,702.359558 
	C409.290497,695.822693 404.540955,690.578735 401.060760,684.504578 
	C397.583221,678.435120 395.578705,671.368347 390.591797,666.081238 
	C389.448608,664.869263 388.886139,662.760559 388.757965,661.013123 
	C388.494385,657.419800 386.200287,655.278625 383.373352,652.898621 
	C382.091614,667.133545 382.385773,681.318115 382.431854,696.370300 
M633.621643,594.220703 
	C643.745056,581.570679 645.373291,567.078674 642.670166,551.728516 
	C638.391357,527.430481 617.187256,510.333923 592.599487,511.017609 
	C571.503235,511.604218 555.762939,521.905212 542.998230,537.818054 
	C540.862305,540.480835 540.648621,543.229126 542.504700,546.108826 
	C545.479492,550.724304 548.307922,555.443604 551.471863,559.925903 
	C559.916382,571.889221 568.229309,583.971436 579.799500,593.307068 
	C588.110291,600.012939 596.959778,605.378723 608.044739,605.708191 
	C609.869629,605.762451 611.687195,605.903442 613.350281,604.806335 
	C621.381958,599.507935 623.205200,592.593994 618.767395,583.766785 
	C617.893677,582.028870 617.206055,580.120728 618.277100,578.541260 
	C621.901489,573.196411 621.359741,567.147156 621.705872,561.211548 
	C621.812561,559.381897 621.005737,556.688049 624.007141,556.556580 
	C626.635437,556.441345 628.332703,558.725159 627.788391,560.862732 
	C625.361938,570.390625 634.095337,579.623596 628.365295,589.173218 
	C627.922546,589.911133 628.240601,591.138550 628.291809,592.133972 
	C628.470642,595.615723 629.973389,596.699646 633.621643,594.220703 
M590.168030,611.520264 
	C582.599426,609.986389 575.508362,607.207825 568.772400,603.446899 
	C554.733887,595.608887 543.331970,584.763184 533.202637,572.446350 
	C532.043274,571.036560 530.892517,569.325012 528.718628,570.003174 
	C526.869812,570.579895 526.568726,572.349976 526.321838,574.041748 
	C522.210876,602.216248 529.796692,626.447144 550.842041,646.002747 
	C559.387695,653.943481 569.532349,659.296509 580.554993,662.971069 
	C587.081116,665.146667 589.611389,664.078430 592.792053,658.323792 
	C599.802490,645.639893 605.664246,632.399963 611.831177,619.304749 
	C614.024109,614.648254 613.502197,613.369446 608.307007,613.386536 
	C602.465271,613.405762 596.649841,613.431946 590.168030,611.520264 
M826.194946,427.311798 
	C826.104858,429.020172 826.741028,430.496765 827.357544,432.074982 
	C829.347168,437.168121 831.412170,442.274963 832.809998,447.545776 
	C834.776245,454.959686 834.531738,455.023041 842.123413,454.707672 
	C842.788330,454.680023 843.455933,454.712067 844.120117,454.675842 
	C846.650635,454.538055 848.055786,453.106750 848.549255,450.709351 
	C848.883423,449.085754 849.242004,447.457550 849.417480,445.813019 
	C849.764526,442.561310 851.294861,441.403656 854.471924,442.583862 
	C857.739136,443.797607 860.981445,444.806061 862.662537,440.231934 
	C862.955322,439.435516 864.034729,438.784973 864.715698,439.298676 
	C869.251892,442.720551 872.647095,440.506775 875.709595,436.343658 
	C880.844116,442.185028 885.433289,447.353882 887.028137,454.471832 
	C887.314026,455.747864 887.513184,457.330963 889.273499,457.305634 
	C890.979980,457.281067 891.986877,456.037567 892.365906,454.499542 
	C892.638123,453.395111 892.667419,452.180298 892.554993,451.039368 
	C891.613586,441.483246 887.584656,433.174774 881.897217,425.629913 
	C879.665100,422.668915 876.674561,420.334930 873.031799,419.448395 
	C870.347046,418.795013 866.862610,418.003937 868.030396,423.155365 
	C868.562500,425.502411 867.235840,427.033203 865.085327,427.669250 
	C862.597534,428.405029 860.907654,427.155945 859.856995,424.977692 
	C857.899963,420.920624 860.406982,416.187714 865.227600,415.045685 
	C869.568115,414.017487 873.512024,415.333832 877.009033,417.825775 
	C879.752319,419.780701 882.258667,422.068115 885.434814,424.670349 
	C884.996582,422.928528 884.793213,421.976471 884.517029,421.046051 
	C882.717773,414.985107 879.553162,409.768860 874.513977,405.898834 
	C870.389160,402.730988 866.247864,405.845032 862.082153,406.132721 
	C854.148926,406.680603 846.283875,405.683411 840.684082,399.357178 
	C837.480713,395.738281 834.899780,391.681030 830.157471,389.837769 
	C829.059143,389.410858 827.936523,388.799225 828.029602,387.393494 
	C828.117737,386.060852 829.224304,385.421448 830.310547,384.988281 
	C833.398315,383.756927 836.525208,382.623962 839.627502,381.428497 
	C842.354309,380.377747 844.221008,378.749695 843.667603,375.444550 
	C843.157837,372.400116 842.017090,370.118042 838.432373,369.864166 
	C833.428711,369.509827 829.105713,367.340027 825.487305,363.999207 
	C823.432617,362.102142 821.878052,359.670929 820.028870,357.540497 
	C819.159851,356.539307 818.121216,355.406647 816.640015,355.952789 
	C815.114990,356.515015 815.138000,358.048920 815.266113,359.376709 
	C815.552490,362.346069 816.411926,365.334381 816.219238,368.261078 
	C815.734375,375.625153 817.703735,382.754395 816.894043,390.382599 
	C816.241699,396.529083 819.890442,403.692749 821.291992,410.475708 
	C822.430908,415.987946 825.900024,420.739136 826.194946,427.311798 
M493.830780,806.898376 
	C493.108643,807.300354 492.415710,807.978699 491.659546,808.058533 
	C487.522156,808.495605 480.444794,817.714050 481.300049,821.731567 
	C481.392120,822.164062 481.700989,822.842957 481.998169,822.894409 
	C485.407227,823.485168 483.690826,825.828247 483.639862,827.572632 
	C483.529327,831.355286 481.152252,835.294983 484.133575,838.811890 
	C486.642151,838.857849 484.982422,835.516296 487.235443,835.525513 
	C489.200745,842.546326 491.186584,844.311401 495.116699,842.529297 
	C497.265686,845.505066 495.468994,850.260437 500.142395,853.035950 
	C501.203339,846.524963 507.293304,843.129883 508.009430,836.856628 
	C509.712769,836.551392 508.890015,839.173096 510.686981,838.617249 
	C512.373657,836.716125 511.710510,834.294983 511.651886,832.053711 
	C511.482605,825.574951 511.571533,825.403137 518.086975,824.825989 
	C517.895386,818.493469 514.147400,813.695435 511.198730,808.558228 
	C509.395752,805.417175 505.614258,807.885864 504.209137,806.589600 
	C500.548981,803.212769 497.661774,804.118958 493.830780,806.898376 
M866.683594,523.815186 
	C868.313293,524.688049 869.615479,525.885498 870.836182,527.306458 
	C879.110901,536.938477 880.859497,547.999207 877.969666,559.993164 
	C876.950928,564.221558 877.819153,568.023010 879.284912,572.759644 
	C882.585571,567.068054 883.356689,561.554016 884.259460,556.087341 
	C886.185974,544.421509 887.787720,532.758484 883.601990,521.204590 
	C881.753906,516.103394 879.310059,511.523071 873.833923,509.496674 
	C873.251404,509.937347 872.715088,510.150513 872.492554,510.541992 
	C870.816162,513.492249 868.487549,515.046997 865.068054,513.818420 
	C861.698364,512.607727 861.032227,509.658630 860.926514,506.539398 
	C860.881897,505.223999 860.982483,503.863953 861.277649,502.584259 
	C862.108521,498.981262 860.175049,497.681458 857.070923,497.382507 
	C855.254211,497.207520 853.417419,497.246063 851.590332,497.173279 
	C848.602905,497.054321 847.673340,498.714966 848.317200,501.306030 
	C849.184082,504.794769 850.105286,508.294037 851.365051,511.653107 
	C852.287292,514.112244 853.504761,516.700867 856.388733,517.492920 
	C860.222961,518.545959 863.083862,521.070312 866.683594,523.815186 
M736.589722,768.083923 
	C741.769104,763.097534 743.003418,757.007202 740.718872,750.285950 
	C745.566650,749.456482 744.293579,754.162781 747.048828,755.315247 
	C750.541138,752.755371 750.224670,749.242981 749.140747,745.691589 
	C748.771790,744.482605 747.747498,743.516235 747.779785,742.060303 
	C747.886414,737.252625 745.297180,734.164673 740.968262,732.759277 
	C736.415527,731.281250 732.536682,732.917542 729.256531,736.276306 
	C727.679871,737.890808 727.178406,740.616577 723.676392,740.259827 
	C722.146240,740.103821 721.771606,742.919983 723.273254,744.190613 
	C724.856262,745.530029 725.847656,747.509399 728.291748,748.028259 
	C732.531738,748.928406 733.580383,752.315735 731.947205,755.695007 
	C730.062805,759.593872 729.502686,763.570251 729.257263,767.704895 
	C729.148499,769.536621 727.178772,771.935486 729.647461,773.090210 
	C732.063538,774.220581 733.275696,771.462769 734.855774,770.156189 
	C735.359009,769.739990 735.721069,769.153076 736.589722,768.083923 
M241.124237,745.854492 
	C239.221832,750.029419 241.054214,752.865601 243.777832,755.474976 
	C246.518356,754.184509 245.712372,750.059814 249.284256,750.538940 
	C249.181183,762.031738 255.154022,771.622864 263.989960,772.905273 
	C262.400604,767.438904 262.315125,762.044067 259.964294,757.039673 
	C258.498535,753.919556 257.647339,750.670959 260.688019,747.878784 
	C262.153381,746.533081 265.974365,747.616699 264.965240,743.740662 
	C264.334625,741.318481 263.536438,738.960693 261.923950,736.964294 
	C258.563171,732.803467 253.565262,731.084900 249.048615,732.718262 
	C244.224243,734.462830 241.860794,737.830078 242.429916,743.104126 
	C242.505615,743.805664 241.895966,744.581055 241.124237,745.854492 
M525.936829,825.594910 
	C526.169617,828.682251 527.952454,831.193359 529.164978,833.889160 
	C530.395691,836.625427 531.931152,836.936829 534.441284,834.555847 
	C538.167847,831.021118 538.702759,825.522888 542.675598,822.242920 
	C543.253113,821.766052 543.540771,820.478394 542.700806,820.008545 
	C540.246216,818.635498 541.152771,816.257812 540.631226,814.275024 
	C539.782410,811.047424 538.265198,807.981201 534.969116,806.729797 
	C531.873474,805.554565 530.220764,808.406555 528.244080,810.038940 
	C523.175964,814.223999 523.584717,819.388855 525.936829,825.594910 
M500.647217,870.736389 
	C500.048431,872.022644 500.859009,873.790161 499.054504,874.927185 
	C497.348755,872.617065 495.677307,868.503601 492.266907,872.622437 
	C487.744171,878.084412 490.310883,884.797363 497.178101,886.459717 
	C499.666748,887.062073 502.118591,886.921631 504.586121,886.370422 
	C507.100769,885.808716 509.514648,885.729370 511.621094,887.649414 
	C512.800659,888.724731 514.251160,889.323792 515.657898,888.118164 
	C517.088562,886.892029 517.449524,884.869385 516.562805,883.555237 
	C514.585449,880.624817 513.903992,877.282104 513.076477,874.187317 
	C510.530914,873.456116 509.198761,875.499573 507.185944,875.976379 
	C505.480377,873.630188 506.025116,868.725281 500.647217,870.736389 
M824.073242,638.250793 
	C824.264160,633.979797 822.192627,631.425293 818.082520,630.531616 
	C812.709717,629.363342 806.368591,631.204285 804.586060,634.516418 
	C803.893738,635.802795 802.976196,637.368958 803.687561,638.775879 
	C806.447266,644.234375 808.864563,650.062561 815.549438,652.422668 
	C819.199768,648.418274 822.314026,644.085999 824.073242,638.250793 
M876.448059,392.014923 
	C875.315918,389.796906 874.250793,387.541565 873.039551,385.367584 
	C868.543274,377.297577 862.114624,371.262329 853.827637,367.165192 
	C851.594177,366.060852 849.708191,366.389709 847.852051,367.916290 
	C845.976807,369.458618 846.223267,371.333923 846.753967,373.362579 
	C847.494812,376.194244 849.122253,377.926758 852.059753,378.637054 
	C862.433838,381.145447 870.814087,386.128510 874.392822,396.984009 
	C875.014587,398.870087 875.957031,400.722961 878.889832,400.097565 
	C879.391602,397.259247 877.659302,395.077362 876.448059,392.014923 
M870.232300,565.285278 
	C867.947815,563.584412 866.168884,563.975220 865.214050,566.697632 
	C863.734558,570.915588 862.170837,574.965698 864.938477,579.532776 
	C867.727661,584.135376 867.964233,589.050842 865.405273,594.247864 
	C863.436584,598.246277 865.331360,602.352478 866.349060,606.210266 
	C868.578125,606.132263 868.937439,604.875671 869.334106,603.856628 
	C871.510315,598.265503 873.420105,592.475342 873.528076,586.516235 
	C873.654358,579.546814 875.670898,572.148438 870.232300,565.285278 
M406.940704,853.269653 
	C410.738708,861.295044 425.988281,867.269470 432.430695,863.209961 
	C432.065918,861.060974 430.148651,860.422058 428.602295,859.662109 
	C422.876648,856.848083 418.613922,852.583008 415.426270,847.130981 
	C413.818726,844.381531 411.778137,841.956299 409.361877,839.896545 
	C408.073547,838.798279 406.765900,837.345764 404.143951,838.265320 
	C405.959717,842.975342 406.240509,847.754944 406.940704,853.269653 
M583.987549,859.491577 
	C589.758972,853.552673 587.833557,845.903198 589.126465,838.875427 
	C582.189148,841.304382 580.237366,847.803833 576.416382,852.529114 
	C572.397583,857.499023 566.158386,859.282288 560.524597,864.202576 
	C569.709290,865.744263 576.813782,864.195251 583.987549,859.491577 
M555.412231,833.872803 
	C557.528809,830.385132 561.330383,827.419189 560.606445,822.922668 
	C559.630615,816.861328 558.730469,810.873291 558.841064,804.692017 
	C558.905701,801.079224 556.603699,800.171631 553.497131,802.134033 
	C551.269531,803.541138 549.936768,805.249756 550.468811,808.294434 
	C550.826660,810.342224 551.349243,812.390503 551.548096,814.523010 
	C552.122375,820.682434 549.922974,826.700684 551.210693,832.896484 
	C551.873047,836.083557 552.761169,836.222778 555.412231,833.872803 
M459.228516,811.933350 
	C455.028412,815.833862 455.676788,820.424255 457.500122,825.073303 
	C458.429138,827.442078 458.899841,830.764465 462.466400,830.314209 
	C465.748596,829.899902 468.322632,828.005493 469.251160,824.545105 
	C469.849030,822.317139 470.055115,819.938599 470.945221,817.843567 
	C472.903290,813.234924 470.369476,810.239197 467.108856,808.220093 
	C463.839569,806.195862 461.673401,809.049316 459.228516,811.933350 
M516.455750,798.393433 
	C517.970825,802.776978 522.559998,802.966919 525.707886,805.115601 
	C526.403503,805.590454 527.474304,805.339600 527.925232,804.552002 
	C529.040161,802.604797 530.979492,802.265015 532.840637,801.542480 
	C536.272949,800.209900 537.190186,796.559448 537.175720,793.816895 
	C537.158813,790.602295 533.748413,789.210693 530.614807,788.867188 
	C522.669067,787.996216 520.716370,789.278503 516.455750,798.393433 
M885.796692,496.961121 
	C888.206848,503.962463 889.007507,511.369446 890.919006,518.956360 
	C893.741333,513.725281 895.065796,484.926270 892.939453,480.735046 
	C886.832825,483.020569 883.740723,489.474030 885.796692,496.961121 
M557.241394,866.133179 
	C555.296814,864.060791 552.881653,863.334961 550.087463,863.483337 
	C547.276123,863.632568 539.136719,867.219849 536.971802,868.899597 
	C533.838745,871.330383 535.179504,873.120605 537.613770,874.586243 
	C543.034058,877.849426 554.212524,875.406738 557.870361,870.345154 
	C558.822449,869.027771 558.434570,867.872925 557.241394,866.133179 
M756.498718,615.908813 
	C756.175354,618.288757 756.941528,619.807434 759.599915,619.821960 
	C761.916016,619.834595 764.233154,619.888733 766.547913,619.837219 
	C768.555603,619.792542 769.325012,618.967651 770.014343,616.732239 
	C772.043335,610.151917 769.908447,603.295532 772.560120,597.155151 
	C771.014221,596.362671 770.312073,596.867432 769.606140,597.274048 
	C762.582275,601.320068 760.503845,608.971130 756.498718,615.908813 
M858.733704,457.540283 
	C858.492004,459.337524 858.090820,461.130219 858.039856,462.932861 
	C857.913696,467.400269 861.410217,473.235779 864.344788,473.757660 
	C870.390320,474.832764 870.109131,469.674591 871.682007,466.340240 
	C871.752747,466.190247 871.820557,466.037811 871.874878,465.881317 
	C874.677551,457.802124 871.446594,455.351654 863.477966,455.586090 
	C862.059082,455.627838 860.663635,456.467194 858.733704,457.540283 
M896.182983,607.189392 
	C895.799683,611.369202 896.713074,614.482666 901.384521,615.989319 
	C905.494446,617.314636 907.754211,615.351013 909.674011,612.525757 
	C911.575195,609.727905 911.762878,606.180725 909.906860,603.643311 
	C907.150574,599.875183 902.256165,600.903870 898.367065,600.764771 
	C895.202881,600.651611 896.554321,604.315857 896.182983,607.189392 
M823.379028,604.442810 
	C823.888733,605.562500 823.996216,607.712280 825.691528,606.959167 
	C829.390320,605.315918 833.204956,604.485962 837.343384,604.842529 
	C837.011902,602.254639 836.843201,600.497742 835.343140,599.143311 
	C833.888428,597.829773 831.231445,598.888245 830.292664,596.503540 
	C831.130371,594.701294 834.629883,594.728455 833.624573,591.682007 
	C833.211609,590.430603 832.313965,589.580872 831.117126,589.603027 
	C827.490173,589.670044 823.863770,589.905151 820.244324,590.171814 
	C819.004822,590.263123 817.934082,590.931396 817.989319,592.341309 
	C818.045166,593.764893 819.297791,594.080322 820.426514,594.427917 
	C821.740723,594.832642 823.553101,594.016602 824.387634,596.305603 
	C822.122803,598.375977 822.713501,601.104553 823.379028,604.442810 
M775.732300,619.160950 
	C783.428223,621.184753 784.873962,620.598877 786.616699,610.721802 
	C786.984802,608.635742 787.228760,606.249756 784.878662,604.974609 
	C782.357666,603.606689 782.655579,607.507080 780.900085,607.405823 
	C777.373962,606.742371 776.541626,603.651123 774.674500,600.194885 
	C773.455078,607.196472 773.920532,612.962830 775.732300,619.160950 
M753.208130,598.680054 
	C753.554871,596.995422 754.880188,596.425537 756.262451,595.728088 
	C763.673462,591.988647 764.843689,582.769836 758.485901,576.664612 
	C755.968994,579.239868 756.717957,583.298523 754.107910,585.878235 
	C750.535339,589.409241 750.819946,594.571350 749.634155,599.061584 
	C749.287781,600.373291 750.250427,602.283081 752.608154,602.342468 
	C752.768982,601.294495 752.918274,600.321899 753.208130,598.680054 
M850.195984,348.307587 
	C847.661865,345.946075 845.930420,342.457672 841.856934,342.042145 
	C840.386719,350.180511 852.006104,363.661285 861.726501,364.217468 
	C858.899963,358.006256 854.536621,353.581848 850.195984,348.307587 
M854.099060,615.620667 
	C852.684326,621.724426 853.104187,627.786438 853.676208,634.594238 
	C858.898560,629.798279 862.664429,612.755127 860.289368,607.626343 
	C859.863831,606.707458 859.336853,605.812073 858.166931,605.779724 
	C856.995911,605.747375 856.260742,606.551575 855.990845,607.519653 
	C855.323303,609.913940 854.830139,612.356812 854.099060,615.620667 
M823.521179,675.308411 
	C820.933167,674.175781 819.912476,675.489990 819.360535,677.834839 
	C818.148193,682.984802 816.831543,688.110107 815.580139,693.251038 
	C815.313232,694.347900 814.839966,695.532959 816.203064,696.312073 
	C819.473633,694.635925 821.238770,692.814148 825.976379,686.235352 
	C830.637756,679.762329 830.637756,679.762329 823.521179,675.308411 
M850.747498,597.437500 
	C847.710388,597.271545 844.550049,596.163086 841.733765,598.449829 
	C842.162903,600.029175 843.246216,601.734863 842.798401,602.792053 
	C841.409912,606.070190 844.186340,608.069641 844.728577,610.704651 
	C845.048523,612.259216 846.717957,612.803528 848.364197,612.713867 
	C849.429565,612.655823 850.902588,612.081177 850.702759,611.306763 
	C849.978699,608.501831 852.598694,607.312988 853.221680,605.207764 
	C854.069641,602.342041 854.599121,599.639709 850.747498,597.437500 
M464.346863,792.850037 
	C461.988068,796.202576 463.600647,798.791870 466.008850,801.165710 
	C467.693512,802.826294 469.979279,803.852783 471.817902,802.174133 
	C474.279755,799.926514 478.120270,796.803284 477.844604,794.472961 
	C477.369354,790.455017 472.331268,792.294312 469.285187,791.568848 
	C467.990021,791.260437 466.418854,792.111084 464.346863,792.850037 
M798.661255,676.205688 
	C800.491943,675.535400 802.189331,674.590881 801.440857,672.294922 
	C800.850647,670.484558 800.251892,668.231445 797.561218,668.575806 
	C796.020752,668.772949 795.834595,667.888184 795.170105,666.823425 
	C793.760559,664.565186 791.351624,664.344910 789.174255,665.558472 
	C787.110046,666.708862 787.139099,668.624634 788.007446,670.758057 
	C789.866211,675.324768 793.412415,676.674133 798.661255,676.205688 
M793.083496,629.324402 
	C788.730469,632.701965 789.488647,640.712158 794.590210,645.151001 
	C798.365234,643.091736 797.329956,639.107117 798.290649,635.915771 
	C799.516846,631.841980 798.392822,629.388245 793.083496,629.324402 
M577.803955,699.701538 
	C577.259033,698.453613 577.185547,696.219238 575.010925,697.615967 
	C573.654968,698.486755 573.359558,699.731201 575.150757,701.157288 
	C576.786743,702.459778 576.924561,704.812500 577.330994,706.572144 
	C571.228210,712.194092 570.903381,705.162598 568.509094,702.654358 
	C566.430542,703.984436 565.952637,705.457092 566.874512,707.429077 
	C568.170837,710.202271 569.636536,712.466919 573.151611,713.122620 
	C577.326843,713.901489 577.672058,710.176453 579.118286,708.304199 
	C581.018250,705.844666 580.776001,702.667297 577.803955,699.701538 
M839.542786,685.861145 
	C842.947571,685.135315 846.366455,684.468445 849.751404,683.659607 
	C851.550171,683.229736 852.764648,682.001465 852.430176,680.063416 
	C852.087891,678.080139 850.331543,678.078552 848.858643,678.370605 
	C844.963806,679.142700 841.029724,679.857117 837.258728,681.057617 
	C835.256104,681.695129 833.719360,683.408081 833.622375,685.872803 
	C835.347107,687.501709 837.079346,686.597534 839.542786,685.861145 
M833.731323,671.373047 
	C836.990295,670.895142 840.342102,670.742249 842.918152,668.210632 
	C844.182800,666.967896 845.198669,665.772583 844.048828,663.926392 
	C842.546143,661.513916 837.794617,661.253967 834.639160,663.639099 
	C831.964783,665.660889 829.120483,667.862976 833.731323,671.373047 
M836.732544,342.788330 
	C835.667969,341.322327 834.798035,339.645813 833.493408,338.439392 
	C831.510864,336.605927 827.591736,337.824097 827.763794,340.229065 
	C828.000122,343.533051 828.893616,347.034424 832.933411,347.733246 
	C836.014404,348.266144 838.418884,347.482758 836.732544,342.788330 
M704.182312,514.471008 
	C702.782166,513.781616 701.673096,512.173401 699.773865,513.044006 
	C699.097290,517.560120 702.739746,524.517273 708.011108,527.641052 
	C707.336304,522.831726 708.977295,518.281494 704.182312,514.471008 
M564.691345,846.070007 
	C565.872986,844.911194 567.279846,843.903015 568.180237,842.556213 
	C569.355103,840.798828 569.116638,838.721802 568.345154,836.810486 
	C567.903198,835.715454 566.893799,835.568359 565.824524,835.864624 
	C563.866211,836.407227 561.562561,837.019836 561.374390,839.273499 
	C561.134155,842.150208 559.773010,844.990173 560.545654,847.863098 
	C562.366760,848.554260 563.279480,847.530029 564.691345,846.070007 
M847.135925,623.645630 
	C843.494507,621.245117 841.843872,623.674683 841.928772,626.581421 
	C842.015381,629.547546 842.533813,632.805359 844.468811,635.412903 
	C850.003723,633.146423 850.472473,631.316040 847.135925,623.645630 
M830.346558,629.130615 
	C828.422058,631.871460 829.191345,634.898193 829.612610,637.800476 
	C829.865540,639.542847 831.306396,641.337585 833.052063,640.328430 
	C835.762268,638.761597 835.963196,635.578369 835.629700,632.790283 
	C835.337280,630.345215 834.616333,627.611877 830.346558,629.130615 
M603.636536,666.520447 
	C607.828857,666.409607 609.077698,663.077148 610.029236,660.025269 
	C610.551147,658.351318 608.658386,657.739380 606.736328,657.870300 
	C605.775269,659.478882 606.662354,662.620300 603.711670,662.794067 
	C600.596436,662.977722 601.383606,659.382141 599.595032,657.603333 
	C597.287903,662.250732 598.679016,664.843811 603.636536,666.520447 
M739.599365,365.731781 
	C741.884460,369.700348 746.177185,369.474609 749.823364,370.491272 
	C750.918396,370.796631 752.144104,369.975891 752.409973,368.668671 
	C752.714600,367.171112 751.584106,366.640625 750.391479,366.380219 
	C748.645874,365.999084 746.597534,366.285675 745.436462,364.556000 
	C743.138062,361.132172 741.478149,362.878906 739.599365,365.731781 
M759.134827,572.909424 
	C762.275269,573.188904 764.719299,572.347351 764.726868,568.693787 
	C764.730652,566.893250 763.468689,565.322937 761.567993,565.701294 
	C758.135193,566.384705 758.135986,569.143921 758.553894,571.914917 
	C758.577881,572.073608 758.665161,572.222656 759.134827,572.909424 
M486.132355,744.133789 
	C483.921753,747.441101 481.619141,748.322021 478.706940,744.763672 
	C476.988403,742.663818 475.667603,743.777100 474.557281,745.845825 
	C477.257751,749.192383 480.959839,749.360474 484.488892,748.816223 
	C486.755768,748.466553 487.169281,746.188293 486.132355,744.133789 
M540.970703,733.315247 
	C540.377258,732.143677 541.580505,730.027649 539.293030,729.800720 
	C538.335266,729.705750 537.327515,730.247498 537.088745,731.390076 
	C536.403625,734.668335 541.898865,739.164917 545.430969,738.165588 
	C545.565125,735.250366 541.975830,736.017456 540.970703,733.315247 
M615.838257,660.986877 
	C615.632385,662.243042 614.932861,663.612061 617.162842,664.723755 
	C619.949463,661.948425 621.836853,659.039673 619.890747,654.593262 
	C616.825562,655.727234 616.267944,657.917297 615.838257,660.986877 
M861.032532,567.660156 
	C862.625916,565.993225 862.900879,564.201233 861.380920,562.369446 
	C860.667847,561.510010 859.662964,561.304932 858.777832,562.118347 
	C857.253357,563.519287 856.145813,565.322266 856.809509,567.358459 
	C857.420105,569.232056 859.046631,568.904541 861.032532,567.660156 
M353.138214,755.564392 
	C350.044800,754.984436 349.275146,756.768127 349.585999,759.293152 
	C349.769897,760.786865 350.424377,762.443481 352.402252,761.911499 
	C354.866455,761.248840 354.939026,759.170471 354.566467,757.096069 
	C354.488373,756.661194 354.034973,756.293823 353.138214,755.564392 
M591.793701,680.678467 
	C591.414673,680.151611 590.985718,679.653076 590.666687,679.092102 
	C589.939880,677.814453 588.968262,677.055664 587.460571,677.615540 
	C586.475220,677.981567 585.815552,678.713928 586.001343,679.868530 
	C586.273010,681.557068 587.648438,681.546387 588.942993,681.877319 
	C591.067993,682.420471 593.124817,683.230103 595.507019,684.026550 
	C595.227661,681.803284 593.436768,681.832520 591.793701,680.678467 
M431.625885,712.320251 
	C432.640350,711.350830 433.046783,709.875732 431.485718,709.668335 
	C428.338074,709.250000 426.874023,706.887085 425.000641,704.549255 
	C424.304199,708.188660 427.225677,711.807983 431.625885,712.320251 
M780.332703,653.679688 
	C779.705078,651.215820 778.581848,649.267395 775.730774,648.939331 
	C774.434875,651.171875 775.296204,653.048462 776.332581,654.620300 
	C777.636475,656.598022 779.294800,657.431519 780.332703,653.679688 
M614.155579,634.631714 
	C615.095825,634.649536 616.125610,635.015137 617.030762,633.591553 
	C615.058044,632.544373 614.420776,629.856384 611.358521,629.312805 
	C611.216370,631.675781 609.918701,634.048889 614.155579,634.631714 
M719.128235,532.475830 
	C720.598938,531.185486 720.073120,529.928284 718.568420,529.592896 
	C716.662354,529.167969 714.316895,528.671753 713.398010,531.710205 
	C714.963623,533.264771 716.765015,532.773132 719.128235,532.475830 
M410.685150,685.413025 
	C412.875366,683.504211 415.065552,681.595459 417.530243,679.447449 
	C413.429932,679.093933 410.381226,681.696411 410.685150,685.413025 
M890.225220,592.734863 
	C888.634766,593.852356 887.789429,595.267212 889.841858,596.499756 
	C891.254944,597.348389 893.405884,597.396973 893.990540,595.507935 
	C894.722290,593.143982 892.884094,592.487915 890.225220,592.734863 
M435.476166,702.383301 
	C434.615387,702.179932 433.810028,701.178467 432.667999,702.382446 
	C433.892273,704.082947 433.517365,706.646057 435.727112,708.270325 
	C437.973297,706.363831 438.411865,704.618225 435.476166,702.383301 
M392.276947,647.260803 
	C390.939484,646.952393 390.143921,645.031616 388.086090,646.069946 
	C388.408447,648.126404 388.653168,650.384888 391.369476,650.508179 
	C393.150635,650.589111 394.115021,649.438049 392.276947,647.260803 
M463.166931,731.282043 
	C465.720795,729.178650 462.592529,728.664185 461.945251,727.972046 
	C460.332794,726.247803 458.194183,725.638794 455.914276,727.654541 
	C459.302673,726.865234 460.243317,730.272339 463.166931,731.282043 
M456.050201,737.606934 
	C457.470215,737.929260 458.949554,738.392212 459.407227,736.150269 
	C458.273865,734.267395 456.506226,734.083008 454.717621,733.959473 
	C454.016815,735.546692 454.590118,736.451782 456.050201,737.606934 
M522.090210,736.990295 
	C520.734558,740.125549 521.456177,740.935791 526.973145,741.899048 
	C525.331238,740.036377 523.991516,738.516479 522.090210,736.990295 
M746.418884,565.019958 
	C748.542175,563.126404 748.125122,561.178650 747.063110,558.422302 
	C744.908325,560.915649 744.697144,562.805176 746.418884,565.019958 
M451.910095,867.442139 
	C452.940125,866.530212 453.726868,865.537842 452.900970,863.671753 
	C451.304932,864.043152 449.166077,863.563843 448.824951,865.999268 
	C448.629303,867.396118 450.038086,867.742798 451.910095,867.442139 
z"/>
<path fill="#000000" opacity="1.000000" stroke="none" 
	d="
M537.997559,435.001862 
	C535.764343,427.378387 541.330139,422.021362 549.172119,423.130951 
	C551.961304,423.525635 554.808899,423.489044 557.616455,423.778290 
	C560.223022,424.046844 562.928101,423.234406 565.703979,424.509094 
	C565.006531,429.656372 560.143188,428.134247 557.155029,429.894226 
	C557.198914,430.619080 557.088623,431.465240 557.319946,432.204559 
	C559.505920,439.191803 559.026184,445.988953 555.995911,452.627167 
	C555.431458,453.863617 555.053955,455.105652 555.454468,456.483551 
	C556.896362,461.444305 568.553162,466.686707 573.315002,464.444519 
	C575.407837,463.459076 576.507935,461.923462 574.931458,459.674957 
	C573.882629,458.179108 573.305542,456.722534 574.651917,455.163147 
	C575.599182,454.066071 576.862366,453.615936 578.253784,454.147339 
	C580.115662,454.858398 581.293762,456.287445 581.431030,458.267670 
	C581.750366,462.876007 579.038086,465.805756 575.385437,467.807159 
	C567.545959,472.102692 559.820984,470.870544 552.755066,466.104675 
	C549.340088,463.801331 547.007202,463.849243 543.508057,466.038971 
	C526.788452,476.502045 507.328400,468.400848 504.206390,449.830353 
	C502.712646,440.945038 506.268890,433.386383 512.922852,428.193512 
	C517.778076,424.404358 518.485107,421.488007 515.719666,416.353760 
	C513.463501,412.164948 513.584412,407.393860 514.720032,402.699097 
	C516.255249,396.352631 521.478027,391.896545 528.700012,390.994476 
	C533.998535,390.332672 539.612488,393.239624 542.088867,397.927338 
	C544.811096,403.080383 543.604248,410.222015 538.926270,414.948212 
	C536.956238,416.938538 534.707520,418.774445 532.291504,420.172729 
	C528.949585,422.106873 528.783997,424.288177 531.003601,427.019958 
	C533.098022,429.597748 535.299194,432.088898 537.770752,435.160706 
	C539.957947,440.864075 544.046082,444.422760 547.482117,448.409912 
	C549.364075,450.593842 551.651245,450.321442 553.130249,447.612793 
	C555.483643,443.302826 553.689941,433.060394 550.023926,429.878357 
	C547.775024,427.926270 545.498718,427.179688 543.453857,430.186554 
	C544.089111,432.302002 548.194519,433.155396 545.541992,435.980103 
	C543.335266,438.330017 541.000183,437.009155 538.858948,435.499359 
	C538.589111,435.309052 538.285522,435.166534 537.997559,435.001862 
M537.091492,450.383362 
	C531.055908,443.604279 526.463135,435.744690 521.312134,428.194397 
	C516.799072,430.721893 515.047607,434.461914 513.990417,438.493408 
	C511.827637,446.740570 513.962463,454.015503 520.017944,459.893036 
	C525.218872,464.941223 531.505005,466.287140 538.417358,463.777161 
	C544.078186,461.721680 544.647034,459.773224 541.035583,455.151276 
	C539.912292,453.713806 538.705261,452.341827 537.091492,450.383362 
M536.148621,410.446686 
	C536.636902,408.356262 537.449768,406.281189 537.549316,404.172424 
	C537.795959,398.948730 534.397095,395.122375 529.788818,395.028442 
	C525.584167,394.942719 522.681763,398.067169 522.292908,403.254333 
	C522.169495,404.899689 522.098633,406.614990 522.420532,408.214447 
	C523.166931,411.924133 523.577209,416.906677 527.448853,417.765839 
	C531.358948,418.633545 533.893555,414.521790 536.148621,410.446686 
z"/>
<path fill="#000000" opacity="1.000000" stroke="none" 
	d="
M127.838989,488.045837 
	C127.396744,489.908722 126.742821,491.511902 124.882088,490.696106 
	C123.204353,489.960541 122.986984,488.163177 123.385101,486.453461 
	C123.675354,485.206970 123.914604,483.534912 125.619629,483.785706 
	C127.700722,484.091888 127.466347,486.157593 127.838989,488.045837 
z"/>
<path fill="#000000" opacity="1.000000" stroke="none" 
	d="
M133.696167,398.579102 
	C132.849808,400.285217 131.669922,402.109558 130.343246,400.378845 
	C128.579361,398.077759 129.682129,395.804535 131.970520,394.242371 
	C133.906509,395.256134 133.979889,396.694885 133.696167,398.579102 
z"/>
<path fill="#000000" opacity="1.000000" stroke="none" 
	d="
M190.540741,248.219177 
	C190.214478,247.799347 190.117813,247.649994 190.096588,247.490601 
	C189.782425,245.131271 190.827835,243.619141 193.110260,243.152695 
	C194.273834,242.914886 195.137711,243.777786 194.946899,244.891266 
	C194.567230,247.106903 193.796753,249.153732 190.540741,248.219177 
z"/>
<path fill="#000000" opacity="1.000000" stroke="none" 
	d="
M131.244934,410.015930 
	C128.363083,411.309113 127.715500,409.813843 127.949898,407.702789 
	C128.097198,406.376282 129.005600,404.912262 130.497849,405.375580 
	C132.879257,406.115021 132.423080,407.981659 131.244934,410.015930 
z"/>
<path fill="#000000" opacity="1.000000" stroke="none" 
	d="
M179.321518,674.113281 
	C180.374451,671.931030 181.664688,671.267273 183.258987,673.008362 
	C184.365585,674.216797 184.118774,675.615723 182.787125,676.406433 
	C180.740494,677.621826 179.766342,676.342285 179.321518,674.113281 
z"/>
<path fill="#000000" opacity="1.000000" stroke="none" 
	d="
M135.419052,551.391724 
	C137.074493,553.141052 136.996262,554.585327 135.128006,555.554993 
	C133.923035,556.180420 132.720688,555.553894 132.373688,554.360352 
	C131.722733,552.121582 132.727936,550.979126 135.419052,551.391724 
z"/>
<path fill="#000000" opacity="1.000000" stroke="none" 
	d="
M128.263733,535.097412 
	C129.335236,533.009094 130.615738,532.220032 132.217819,533.961487 
	C133.311234,535.150085 133.057693,536.569153 131.743103,537.354309 
	C129.734436,538.553894 128.730392,537.308167 128.263733,535.097412 
z"/>
<path fill="#000000" opacity="1.000000" stroke="none" 
	d="
M126.267090,458.833191 
	C123.409981,459.389648 122.662521,458.025360 123.181801,455.871124 
	C123.448601,454.764252 124.412621,453.666534 125.711250,454.281372 
	C127.745750,455.244659 127.939720,456.859741 126.267090,458.833191 
z"/>
<path fill="#000000" opacity="1.000000" stroke="none" 
	d="
M148.216934,336.286987 
	C145.559647,334.766632 145.998795,333.113159 147.709305,331.556396 
	C148.552811,330.788666 149.629562,331.043762 150.232498,331.951447 
	C151.668076,334.112640 150.915161,335.560120 148.216934,336.286987 
z"/>
<path fill="#000000" opacity="1.000000" stroke="none" 
	d="
M390.964539,96.514145 
	C392.536896,94.869522 394.079529,94.325890 395.196228,96.371689 
	C395.982849,97.812752 395.097168,99.048317 393.641815,99.461342 
	C391.436157,100.087288 390.511658,99.029533 390.964539,96.514145 
z"/>
<path fill="#000000" opacity="1.000000" stroke="none" 
	d="
M582.154297,87.060410 
	C583.468872,84.732964 584.918945,84.447556 586.446167,86.339066 
	C587.147217,87.207420 587.003723,88.300438 586.105652,88.914452 
	C584.168152,90.239128 582.779785,89.656456 582.154297,87.060410 
z"/>
<path fill="#000000" opacity="1.000000" stroke="none" 
	d="
M575.971863,87.741623 
	C573.665527,87.315277 572.673706,86.160912 573.781128,84.274986 
	C574.554932,82.957298 576.024353,82.845116 577.147339,83.892075 
	C578.843201,85.473106 578.092651,86.738777 575.971863,87.741623 
z"/>
<path fill="#000000" opacity="1.000000" stroke="none" 
	d="
M143.093658,580.294678 
	C143.134354,581.962585 143.378830,583.516846 141.488342,583.614868 
	C140.402069,583.671265 139.821320,582.716431 139.400925,581.787964 
	C138.866898,580.608643 138.974808,579.457275 140.016983,578.688171 
	C141.556580,577.552002 142.368591,578.629761 143.093658,580.294678 
z"/>
<path fill="#000000" opacity="1.000000" stroke="none" 
	d="
M241.013519,184.402740 
	C243.318359,185.421524 243.628952,186.749100 242.026779,188.266373 
	C240.851486,189.379410 239.509933,189.233688 238.726822,187.846893 
	C237.590164,185.834015 238.783997,184.844940 241.013519,184.402740 
z"/>
<path fill="#000000" opacity="1.000000" stroke="none" 
	d="
M495.822510,77.408997 
	C497.808044,78.328262 498.419952,79.494164 496.915649,80.948494 
	C495.973389,81.859451 494.675446,81.969421 493.860840,80.843193 
	C492.446289,78.887566 493.480103,77.831268 495.822510,77.408997 
z"/>
<path fill="#000000" opacity="1.000000" stroke="none" 
	d="
M468.192017,83.871246 
	C466.131165,82.580765 465.819733,81.175438 467.678162,79.934532 
	C468.857544,79.147034 470.429810,79.216560 470.991272,80.720406 
	C471.763733,82.789452 470.373474,83.658325 468.192017,83.871246 
z"/>
<path fill="#000000" opacity="1.000000" stroke="none" 
	d="
M427.963135,90.116669 
	C425.715973,91.475792 424.425537,90.710442 424.115479,88.670471 
	C423.921600,87.394859 424.971466,86.383347 426.278412,86.492264 
	C428.328064,86.663086 429.292908,87.763084 427.963135,90.116669 
z"/>
<path fill="#000000" opacity="1.000000" stroke="none" 
	d="
M417.283661,92.802399 
	C415.037933,91.215599 415.249603,89.704941 417.112701,88.435020 
	C418.218445,87.681335 419.473145,88.084435 419.977142,89.256454 
	C420.930359,91.473175 419.770416,92.576973 417.283661,92.802399 
z"/>
<path fill="#000000" opacity="1.000000" stroke="none" 
	d="
M375.163757,100.675888 
	C377.486938,100.418938 378.844971,101.210197 378.333008,103.354630 
	C378.003235,104.735916 376.638855,105.563194 375.235840,104.816071 
	C373.356171,103.815109 373.361420,102.319412 375.163757,100.675888 
z"/>
<path fill="#000000" opacity="1.000000" stroke="none" 
	d="
M300.931885,136.671265 
	C302.563324,135.224579 304.114563,134.438736 305.050537,136.779831 
	C305.533020,137.986633 304.712799,139.124084 303.478943,139.501297 
	C301.271240,140.176224 300.303589,139.276566 300.931885,136.671265 
z"/>
<path fill="#000000" opacity="1.000000" stroke="none" 
	d="
M281.337830,154.687424 
	C278.854126,155.300476 277.740692,154.411957 278.266144,152.226990 
	C278.562683,150.993759 279.834534,150.343262 281.043701,150.763702 
	C283.315918,151.553757 283.140564,152.976303 281.337830,154.687424 
z"/>
<path fill="#000000" opacity="1.000000" stroke="none" 
	d="
M255.873322,174.881195 
	C254.756439,176.767944 253.513580,177.786697 251.883148,176.105148 
	C250.745560,174.931900 251.152405,173.547577 252.420868,172.803680 
	C254.249710,171.731125 255.491943,172.492508 255.873322,174.881195 
z"/>
<path fill="#000000" opacity="1.000000" stroke="none" 
	d="
M176.286377,664.785767 
	C179.074265,664.460754 179.799500,665.828064 179.168991,667.935120 
	C178.786301,669.214050 177.515167,669.544983 176.400665,668.898499 
	C174.599030,667.853455 174.574249,666.427368 176.286377,664.785767 
z"/>
<path fill="#000000" opacity="1.000000" stroke="none" 
	d="
M142.799225,359.866699 
	C142.082336,361.997009 140.940948,363.133392 139.116226,361.670837 
	C137.949570,360.735718 137.985916,359.156189 139.161636,358.216309 
	C140.865707,356.854095 142.190842,357.455902 142.799225,359.866699 
z"/>
<path fill="#000000" opacity="1.000000" stroke="none" 
	d="
M128.987213,415.344635 
	C131.336136,416.654938 131.374741,418.217163 129.787430,419.763947 
	C128.838455,420.688721 127.537636,420.600464 126.887840,419.408478 
	C125.821739,417.452942 126.497734,415.997375 128.987213,415.344635 
z"/>
<path fill="#000000" opacity="1.000000" stroke="none" 
	d="
M125.832214,428.960114 
	C124.629501,426.633057 125.218971,425.178375 127.508652,424.821747 
	C128.565414,424.657135 129.354614,425.608398 129.390198,426.664795 
	C129.467148,428.948883 128.464523,430.049286 125.832214,428.960114 
z"/>
<path fill="#000000" opacity="1.000000" stroke="none" 
	d="
M126.008446,439.496887 
	C123.533417,438.242554 123.632820,436.656433 125.167580,435.130615 
	C126.107910,434.195709 127.403023,434.389618 128.085754,435.532288 
	C129.286621,437.542145 128.499268,438.892456 126.008446,439.496887 
z"/>
<path fill="#000000" opacity="1.000000" stroke="none" 
	d="
M125.269196,444.306763 
	C127.769981,444.905548 128.611725,446.166626 127.198784,448.221619 
	C126.580971,449.120148 125.506248,449.474915 124.634270,448.786102 
	C122.725014,447.277924 123.187454,445.752441 125.269196,444.306763 
z"/>
<path fill="#000000" opacity="1.000000" stroke="none" 
	d="
M134.474609,544.715820 
	C133.502335,546.895447 132.275375,547.702698 130.696930,545.850281 
	C129.674606,544.650513 129.994370,543.181030 131.231339,542.417297 
	C133.273315,541.156616 134.218445,542.369324 134.474609,544.715820 
z"/>
<path fill="#000000" opacity="1.000000" stroke="none" 
	d="
M134.766968,563.994995 
	C133.600525,561.905334 133.902481,560.420959 136.033035,560.075867 
	C137.608200,559.820740 138.477539,561.100342 138.317627,562.532654 
	C138.100494,564.477844 137.075623,565.548096 134.766968,563.994995 
z"/>
</svg>